<?xml version="1.0" encoding="utf-8"?>
<!-- Generator: Adobe Illustrator 15.0.2, SVG Export Plug-In . SVG Version: 6.00 Build 0)  -->
<!DOCTYPE svg PUBLIC "-//W3C//DTD SVG 1.1//EN" "http://www.w3.org/Graphics/SVG/1.1/DTD/svg11.dtd">
<svg version="1.1" id="Layer_1" xmlns:sketch="http://www.bohemiancoding.com/sketch/ns"
	 xmlns="http://www.w3.org/2000/svg" xmlns:xlink="http://www.w3.org/1999/xlink" x="0px" y="0px" width="100px" height="100px"
	 viewBox="-13 -17.5 100 100" enable-background="new -13 -17.5 100 100" xml:space="preserve">
<title>shape</title>
<description>Created with Sketch (http://www.bohemiancoding.com/sketch)</description>
<g id="Page-1" sketch:type="MSPage">
	<path id="shape" sketch:type="MSShapeGroup" d="M55.647,64.112c11.421,0,20.679-9.259,20.679-20.68s-9.258-20.679-20.679-20.679
		c-2.966,0-5.788,0.625-8.339,1.75l-1.898-2.629c3.103-1.476,6.573-2.301,10.237-2.301c13.178,0,23.86,10.683,23.86,23.859
		c0,13.179-10.683,23.86-23.86,23.86c-10.39,0-19.227-6.638-22.502-15.906H-3.193c-0.887,0-1.249-0.608-0.803-1.363L26.213-1.333
		c0.442-0.753,1.16-0.756,1.604,0l30.211,51.356c0.441,0.753,0.085,1.363-0.804,1.363H41.945v-3.181H53.26L27.016,3.666
		L0.769,48.206h34.544l1.243,3.23C39.711,58.89,47.069,64.112,55.647,64.112z"/>
</g>
</svg>
