<svg xmlns="http://www.w3.org/2000/svg" width="100" height="100" viewBox="-13 -17.5 100 100"><title>shape</title><path d="M55.647 64.112c11.42 0 20.68-9.26 20.68-20.68s-9.26-20.68-20.68-20.68c-2.966 0-5.788.626-8.34 1.75l-1.897-2.628c3.103-1.476 6.573-2.3 10.237-2.3 13.178 0 23.86 10.682 23.86 23.858 0 13.18-10.683 23.86-23.86 23.86-10.39 0-19.227-6.638-22.502-15.906H-3.193c-.887 0-1.25-.608-.803-1.363l30.21-51.356c.44-.753 1.16-.756 1.603 0l30.21 51.356c.442.753.086 1.363-.803 1.363h-15.28v-3.18H53.26L27.016 3.665.77 48.206h34.543l1.243 3.23c3.155 7.454 10.513 12.676 19.09 12.676z"/></svg>