<svg xmlns="http://www.w3.org/2000/svg" width="100" height="100" viewBox="0 0 100 100"><path d="M89.187 33.385h-77.19a.91.91 0 0 1-.908-.909v-7.265c0-.5.407-.908.908-.908h77.189c.501 0 .908.407.908.908v7.265a.907.907 0 0 1-.907.909zm-76.281-1.817h75.372V26.12H12.906v5.448z"/><path d="M89.187 79.697h-77.19a.909.909 0 0 1-.908-.908V32.476c0-.501.407-.908.908-.908h77.189c.501 0 .908.407.908.908v46.313a.906.906 0 0 1-.907.908zm-76.281-1.815h75.372V33.385H12.906v44.497z"/><circle cx="78.063" cy="28.844" r="1.362"/><circle cx="81.695" cy="28.844" r="1.362"/><circle cx="85.327" cy="28.844" r="1.362"/><path d="M29.251 79.697H11.997a.909.909 0 0 1-.908-.908V32.476c0-.501.407-.908.908-.908h17.254c.501 0 .908.407.908.908v46.313a.907.907 0 0 1-.908.908zm-16.345-1.815h15.438V33.385H12.906v44.497z"/><g><path d="M23.803 46.098h-7.265a.91.91 0 0 1-.909-.908v-6.357c0-.501.407-.908.909-.908h7.265c.501 0 .909.406.909.908v6.357a.91.91 0 0 1-.909.908zm-6.357-1.816h5.449v-4.541h-5.449v4.541z"/></g><g><path d="M23.803 57.903h-7.265a.909.909 0 0 1-.909-.909v-6.355c0-.502.407-.908.909-.908h7.265c.501 0 .909.406.909.908v6.355a.91.91 0 0 1-.909.909zm-6.357-1.816h5.449v-4.541h-5.449v4.541z"/></g><g><path d="M23.803 69.708h-7.265a.909.909 0 0 1-.909-.908v-6.355c0-.503.407-.909.909-.909h7.265c.501 0 .909.406.909.909V68.8a.91.91 0 0 1-.909.908zm-6.357-1.815h5.449v-4.541h-5.449v4.541z"/></g><g><path d="M78.289 68.8H39.24a.908.908 0 0 1-.908-.907V39.741c0-.502.407-.908.908-.908h39.049c.501 0 .908.406.908.908v28.151a.907.907 0 0 1-.908.908zm-38.141-1.816H77.38V40.649H40.148v26.335z"/><path d="M74.162 68.331a.908.908 0 0 1-.736-.374L63.414 54.206l-6.046 6.567a.908.908 0 0 1-1.437-.133l-9.213-14.653-6.951 4.95a.91.91 0 0 1-1.055-1.48l7.734-5.507a.91.91 0 0 1 1.296.256l9.093 14.462 5.993-6.507a.911.911 0 0 1 1.403.08l10.663 14.647a.906.906 0 0 1-.732 1.443zM69.737 49.73c-2.129 0-3.86-1.732-3.86-3.86s1.731-3.859 3.86-3.859c2.128 0 3.86 1.731 3.86 3.859s-1.732 3.86-3.86 3.86zm0-5.903c-1.125 0-2.042.917-2.042 2.043s.917 2.043 2.042 2.043c1.126 0 2.042-.917 2.042-2.043s-.916-2.043-2.042-2.043z"/></g></svg>