<?xml version="1.0" encoding="utf-8"?>
<!-- Generator: Adobe Illustrator 15.0.2, SVG Export Plug-In . SVG Version: 6.00 Build 0)  -->
<!DOCTYPE svg PUBLIC "-//W3C//DTD SVG 1.1//EN" "http://www.w3.org/Graphics/SVG/1.1/DTD/svg11.dtd">
<svg version="1.1" id="Your_Icon" xmlns="http://www.w3.org/2000/svg" xmlns:xlink="http://www.w3.org/1999/xlink" x="0px" y="0px"
	 width="100px" height="100px" viewBox="0 0 100 100" enable-background="new 0 0 100 100" xml:space="preserve">
<path fill="none" stroke="#000000" stroke-width="3.7904" stroke-miterlimit="10" d="M43.371,51.817
	c-3.335,2.364,3.001,5.414,4.719-0.079c-2.218-0.728-5.556-0.171-4.867,2.454c3.539,1.293,7.182-4.151,4.356-6.479
	c-3.142-2.586-6.659,3.54-5.439,5.901c4.115,0.207,13.96-6.526,8.923-10.664c-5.957-4.896-16.732,11.131-12.668,15.664
	c4.875,5.438,21.618-4.658,18.571-10.889c-2.139-4.374-8.121-1.401-7.084,2.697C56.81,53.2,67.665,43.988,59.964,39
	c-4.764-3.083-13.779,1.614-16.924,4.705c-2.697,2.656-6.5,8.101-0.025,7.832c3.914-0.167,13.063-5.891,12.422-10.283
	c-0.766-5.251-8.088-4.674-12.468-2.902c-4.061,1.646-14.514,9.93-12.523,15.224c1.968,5.231,11.823,4.706,16.256,3.507
	c4.18-1.123,11.413-4.877,11.418-9.793c0.006-6.489-9.887-8.13-14.952-5.964c-5.377,2.301-15.087,14.081-12.002,20.216
	c3.443,6.836,16.55,4.565,22.417,2.424c5.971-2.18,20.049-10.211,17.135-18.212c-3.01-8.25-13.777-6.32-17.611-0.499
	c-3.262,4.947-6.308,14.841-1.322,19.824c5.338,5.334,15.809,3.021,21.006-1.029c5.709-4.448,9.143-11.002,5.771-17.544
	c-3.258-6.325-9.744-15.115-16.756-18.153c-7.375-3.196-19.829-2.831-27.355-0.233c-11.133,3.849-7.736,21.351-5.532,29.548
	c3.327,12.363,23.089,23.455,36.536,19.26c22.057-6.885,13.182-35.134-4.123-42.059c-6.82-2.73-16.898-3.053-20.544,4.294
	c-3.917,7.901-1.994,23.415,3.222,30.454c8.377,11.305,17.731,9.332,25.026-1.857c5.875-9.006,10.645-18.945,0.135-26.248
	c-8.533-5.927-23.799-11.259-32.321-2.492c-4.24,4.357-7.45,14.558-0.74,18.397c3.67,2.103,15.02,0.816,18.245-1.697
	c-7.885-2.627-24.791,10.678-26.832,17.359c-1.089,3.563,0.25,12.266,4.368,13.695c8.999,3.117,23.539-13.436,28.626-17.924
	c5.309-4.689,10.748-8.926,9.285-16.365c-1.254-6.377-7.141-16.663-13.318-20.104c-6.322-3.526-25.347-2.762-28.569,3.918
	c-4.904,10.169,0.397,29.831,14.304,29.155c3.103-0.148,8.786-0.594,11.312-2.545c6.477-5.01,3.799-17.739,0.152-23.392
	c-3.879-6.007-12.377-11.547-20.107-8.599c-6.914,2.635-17.838,13.586-19.83,20.269c-3.304,11.11,9.41,18.338,18.656,11.58
	c5.589-4.088,18.955-22.146,4.755-24.686c-5.995-1.073-9.019,3.733-11.722,7.86c-6.287,9.605-8.782,20.744-0.943,30.351
	c14.157,17.354,32.48,3.336,38.917-11.959c5.295-12.578,9.584-39.903-6.752-48.183c-4.682-2.373-12.132-2.882-17.263-1.784
	c-6.625,1.42-10.156,7.555-14.172,12.138c-3.894,4.446-10.725,10.491-11.718,16.643c-1.044,6.473,5.967,12.062,11.46,14.724
	c6.735,3.263,15.359,3.767,22.531,1.565c2.685-0.826,10.005-3.045,10.933-5.99c-11.205-6.092-26.643,0.139-27.999,12.457
	C28.48,83.612,49.017,85.866,63.331,82.579c11.857-2.721,21.313-12.561,22.76-23.928c0.668-5.266,1.578-12.815-1.152-17.502
	c-3.457-5.933-11.639-9.464-18.533-9.75c-10.076-0.421-13.504,8.844-6.408,15.124c7.65,6.773,27.764,4.937,24.592-8.167
	c-2.496-10.33-17.199-9.35-25.668-8.164c3.311,0.962,14.234-1.1,13.465-5.943c-1.188-7.46-36.484,3.907-39.632,9.567
	c3.933,0.447,11.069-0.339,12.112-4.819c-7.138-4.881-13.099,16.624-11.829,21.434c1.497,0.068,3.012-0.006,4.526,0.031"/>
</svg>
