<svg xmlns="http://www.w3.org/2000/svg" width="100" height="100" viewBox="-13 -17.5 100 100"><title>shape</title><path d="M55.647 64.112c11.421 0 20.679-9.259 20.679-20.68s-9.258-20.679-20.679-20.679c-2.966 0-5.788.625-8.339 1.75l-1.898-2.629a23.764 23.764 0 0 1 10.237-2.301c13.178 0 23.86 10.683 23.86 23.859 0 13.179-10.683 23.86-23.86 23.86-10.39 0-19.227-6.638-22.502-15.906H-3.193c-.887 0-1.249-.608-.803-1.363L26.213-1.333c.442-.753 1.16-.756 1.604 0l30.211 51.356c.441.753.085 1.363-.804 1.363H41.945v-3.181H53.26L27.016 3.666.769 48.206h34.544l1.243 3.23c3.155 7.454 10.513 12.676 19.091 12.676z"/></svg>