<?xml version="1.0" encoding="utf-8"?>
<!-- Generator: Adobe Illustrator 15.0.2, SVG Export Plug-In . SVG Version: 6.00 Build 0)  -->
<!DOCTYPE svg PUBLIC "-//W3C//DTD SVG 1.1//EN" "http://www.w3.org/Graphics/SVG/1.1/DTD/svg11.dtd">
<svg version="1.1" id="Your_Icon" xmlns="http://www.w3.org/2000/svg" xmlns:xlink="http://www.w3.org/1999/xlink" x="0px" y="0px"
	 width="100px" height="100px" viewBox="0 0 100 100" enable-background="new 0 0 100 100" xml:space="preserve">
<g>
	<g>
		<path d="M89.187,33.385H11.997c-0.5,0-0.908-0.407-0.908-0.909v-7.265c0-0.5,0.407-0.908,0.908-0.908h77.189
			c0.501,0,0.908,0.407,0.908,0.908v7.265C90.095,32.978,89.688,33.385,89.187,33.385z M12.906,31.568h75.372V26.12H12.906V31.568z"
			/>
	</g>
	<g>
		<path d="M89.187,79.697H11.997c-0.5,0-0.908-0.406-0.908-0.908V32.476c0-0.501,0.407-0.908,0.908-0.908h77.189
			c0.501,0,0.908,0.407,0.908,0.908v46.313C90.095,79.291,89.688,79.697,89.187,79.697z M12.906,77.882h75.372V33.385H12.906V77.882
			z"/>
	</g>
	<g>
		<circle cx="78.063" cy="28.844" r="1.362"/>
	</g>
	<g>
		<circle cx="81.695" cy="28.844" r="1.362"/>
	</g>
	<g>
		<circle cx="85.327" cy="28.844" r="1.362"/>
	</g>
	<g>
		<path d="M29.251,79.697H11.997c-0.5,0-0.908-0.406-0.908-0.908V32.476c0-0.501,0.407-0.908,0.908-0.908h17.254
			c0.501,0,0.908,0.407,0.908,0.908v46.313C30.16,79.291,29.752,79.697,29.251,79.697z M12.906,77.882h15.438V33.385H12.906V77.882z
			"/>
	</g>
</g>
<g>
	<path d="M23.803,46.098h-7.265c-0.501,0-0.909-0.407-0.909-0.908v-6.357c0-0.501,0.407-0.908,0.909-0.908h7.265
		c0.501,0,0.909,0.406,0.909,0.908v6.357C24.711,45.69,24.304,46.098,23.803,46.098z M17.446,44.282h5.449v-4.541h-5.449V44.282z"/>
</g>
<g>
	<path d="M23.803,57.903h-7.265c-0.501,0-0.909-0.406-0.909-0.909v-6.355c0-0.502,0.407-0.908,0.909-0.908h7.265
		c0.501,0,0.909,0.406,0.909,0.908v6.355C24.711,57.497,24.304,57.903,23.803,57.903z M17.446,56.087h5.449v-4.541h-5.449V56.087z"
		/>
</g>
<g>
	<path d="M23.803,69.708h-7.265c-0.501,0-0.909-0.406-0.909-0.908v-6.355c0-0.503,0.407-0.909,0.909-0.909h7.265
		c0.501,0,0.909,0.406,0.909,0.909V68.8C24.711,69.302,24.304,69.708,23.803,69.708z M17.446,67.893h5.449v-4.541h-5.449V67.893z"/>
</g>
<g>
	<g>
		<path d="M78.289,68.8H39.24c-0.5,0-0.908-0.405-0.908-0.907V39.741c0-0.502,0.407-0.908,0.908-0.908h39.049
			c0.501,0,0.908,0.406,0.908,0.908v28.151C79.197,68.395,78.79,68.8,78.289,68.8z M40.148,66.984h37.232V40.649H40.148V66.984z"/>
	</g>
	<g>
		<path d="M74.162,68.331c-0.282,0-0.558-0.13-0.736-0.374L63.414,54.206l-6.046,6.567c-0.19,0.208-0.469,0.318-0.75,0.289
			c-0.282-0.025-0.536-0.182-0.687-0.422l-9.213-14.653l-6.951,4.95c-0.408,0.291-0.977,0.193-1.267-0.213
			c-0.291-0.409-0.195-0.976,0.212-1.267l7.734-5.507c0.203-0.145,0.459-0.199,0.703-0.152c0.245,0.048,0.459,0.196,0.593,0.408
			l9.093,14.462l5.993-6.507c0.184-0.202,0.435-0.31,0.721-0.292c0.271,0.016,0.521,0.152,0.682,0.372l10.663,14.647
			c0.296,0.405,0.207,0.973-0.199,1.268C74.533,68.274,74.347,68.331,74.162,68.331z"/>
	</g>
	<g>
		<path d="M69.737,49.73c-2.129,0-3.86-1.732-3.86-3.86s1.731-3.859,3.86-3.859c2.128,0,3.86,1.731,3.86,3.859
			S71.865,49.73,69.737,49.73z M69.737,43.827c-1.125,0-2.042,0.917-2.042,2.043s0.917,2.043,2.042,2.043
			c1.126,0,2.042-0.917,2.042-2.043S70.863,43.827,69.737,43.827z"/>
	</g>
</g>
</svg>
