<svg width="1200" height="800" viewBox="0 0 1200 800" fill="none" xmlns="http://www.w3.org/2000/svg">
<rect width="1200" height="800" fill="white"/>
<path d="M364.98 191.673L369.449 186.701C379.88 175.096 394.75 168.468 410.354 168.468H759.31H783.743C797.59 168.468 810.927 173.691 821.091 183.094L879.236 236.88C890.489 247.29 896.887 261.925 896.887 277.255V337.95V528.213C896.887 558.589 872.263 583.213 841.887 583.213H774.745H349.954C334.35 583.213 319.481 576.585 309.05 564.981L271.081 522.74C262.006 512.644 256.985 499.548 256.985 485.973V462.949C256.985 448.182 251.047 434.036 240.508 423.693L196.62 380.624C186.081 370.282 180.143 356.135 180.143 341.369V264.905C180.143 234.53 204.768 209.905 235.143 209.905H324.076C339.68 209.905 354.549 203.277 364.98 191.673Z" stroke="#01BEF4" stroke-width="5"/>
<rect x="244.569" y="555.027" width="87.9152" height="56.3731" fill="white"/>
<rect x="584.822" y="555.027" width="87.9152" height="56.3731" fill="white"/>
<rect x="864.003" y="213.432" width="187.239" height="127.511" fill="white"/>
<rect x="141.89" y="317.454" width="87.9152" height="177.173" fill="white"/>
<rect x="415.703" y="143.637" width="87.9152" height="56.3731" fill="white"/>
<path d="M135.955 361.587H142.255C144.235 361.587 145.97 361.987 147.46 362.787C148.95 363.577 150.11 364.702 150.94 366.162C151.77 367.622 152.185 369.347 152.185 371.337C152.185 373.307 151.77 375.022 150.94 376.482C150.11 377.932 148.95 379.057 147.46 379.857C145.97 380.657 144.235 381.057 142.255 381.057H135.955V361.587ZM139.495 364.797V377.877H142.255C143.515 377.877 144.6 377.592 145.51 377.022C146.43 376.452 147.135 375.677 147.625 374.697C148.125 373.707 148.375 372.587 148.375 371.337C148.375 370.067 148.125 368.942 147.625 367.962C147.135 366.982 146.43 366.212 145.51 365.652C144.6 365.082 143.515 364.797 142.255 364.797H139.495ZM161.981 381.477C160.741 381.477 159.606 381.157 158.576 380.517C157.546 379.877 156.721 378.982 156.101 377.832C155.481 376.672 155.171 375.317 155.171 373.767C155.171 372.167 155.476 370.792 156.086 369.642C156.706 368.492 157.531 367.612 158.561 367.002C159.591 366.392 160.731 366.087 161.981 366.087C163.141 366.087 164.141 366.322 164.981 366.792C165.831 367.252 166.511 367.882 167.021 368.682C167.541 369.472 167.891 370.367 168.071 371.367C168.251 372.367 168.261 373.397 168.101 374.457H157.991V372.537H165.596L164.906 372.987C164.936 372.517 164.911 372.042 164.831 371.562C164.761 371.082 164.621 370.642 164.411 370.242C164.201 369.842 163.901 369.522 163.511 369.282C163.131 369.032 162.641 368.907 162.041 368.907C161.321 368.907 160.711 369.087 160.211 369.447C159.711 369.807 159.331 370.297 159.071 370.917C158.811 371.537 158.681 372.237 158.681 373.017V374.427C158.681 375.247 158.801 375.972 159.041 376.602C159.291 377.232 159.656 377.727 160.136 378.087C160.626 378.447 161.241 378.627 161.981 378.627C162.671 378.627 163.251 378.467 163.721 378.147C164.191 377.827 164.491 377.347 164.621 376.707H168.191C168.041 377.647 167.686 378.477 167.126 379.197C166.576 379.907 165.861 380.467 164.981 380.877C164.101 381.277 163.101 381.477 161.981 381.477ZM173.299 381.057V364.737C173.299 363.687 173.504 362.832 173.914 362.172C174.324 361.512 174.864 361.027 175.534 360.717C176.214 360.397 176.949 360.237 177.739 360.237C178.229 360.237 178.734 360.272 179.254 360.342C179.774 360.412 180.279 360.497 180.769 360.597L180.079 363.327C179.829 363.237 179.569 363.167 179.299 363.117C179.029 363.057 178.769 363.027 178.519 363.027C178.239 363.027 177.974 363.082 177.724 363.192C177.474 363.292 177.269 363.472 177.109 363.732C176.949 363.992 176.869 364.347 176.869 364.797V381.057H173.299ZM171.139 368.847V366.507H179.539V368.847H171.139ZM185.554 363.837C184.864 363.837 184.324 363.657 183.934 363.297C183.554 362.927 183.364 362.417 183.364 361.767C183.364 361.137 183.554 360.637 183.934 360.267C184.324 359.887 184.864 359.697 185.554 359.697C186.234 359.697 186.769 359.887 187.159 360.267C187.549 360.637 187.744 361.137 187.744 361.767C187.744 362.417 187.549 362.927 187.159 363.297C186.769 363.657 186.234 363.837 185.554 363.837ZM183.784 381.057V366.447H187.324V381.057H183.784ZM203.338 381.057V372.537C203.338 371.457 203.078 370.642 202.558 370.092C202.038 369.542 201.358 369.267 200.518 369.267C199.808 369.267 199.178 369.462 198.628 369.852C198.088 370.242 197.663 370.832 197.353 371.622C197.043 372.402 196.888 373.377 196.888 374.547H195.718C195.718 372.657 195.953 371.087 196.423 369.837C196.893 368.577 197.558 367.637 198.418 367.017C199.278 366.397 200.288 366.087 201.448 366.087C202.648 366.087 203.648 366.357 204.448 366.897C205.258 367.427 205.863 368.177 206.263 369.147C206.673 370.117 206.878 371.247 206.878 372.537V381.057H203.338ZM193.348 381.057V366.507H196.438L196.888 369.387V381.057H193.348ZM217.469 381.477C216.229 381.477 215.094 381.157 214.064 380.517C213.034 379.877 212.209 378.982 211.589 377.832C210.969 376.672 210.659 375.317 210.659 373.767C210.659 372.167 210.964 370.792 211.574 369.642C212.194 368.492 213.019 367.612 214.049 367.002C215.079 366.392 216.219 366.087 217.469 366.087C218.629 366.087 219.629 366.322 220.469 366.792C221.319 367.252 221.999 367.882 222.509 368.682C223.029 369.472 223.379 370.367 223.559 371.367C223.739 372.367 223.749 373.397 223.589 374.457H213.479V372.537H221.084L220.394 372.987C220.424 372.517 220.399 372.042 220.319 371.562C220.249 371.082 220.109 370.642 219.899 370.242C219.689 369.842 219.389 369.522 218.999 369.282C218.619 369.032 218.129 368.907 217.529 368.907C216.809 368.907 216.199 369.087 215.699 369.447C215.199 369.807 214.819 370.297 214.559 370.917C214.299 371.537 214.169 372.237 214.169 373.017V374.427C214.169 375.247 214.289 375.972 214.529 376.602C214.779 377.232 215.144 377.727 215.624 378.087C216.114 378.447 216.729 378.627 217.469 378.627C218.159 378.627 218.739 378.467 219.209 378.147C219.679 377.827 219.979 377.347 220.109 376.707H223.679C223.529 377.647 223.174 378.477 222.614 379.197C222.064 379.907 221.349 380.467 220.469 380.877C219.589 381.277 218.589 381.477 217.469 381.477ZM244.805 381.057L244.355 377.517V371.667C244.355 370.647 244.145 369.892 243.725 369.402C243.315 368.912 242.615 368.667 241.625 368.667C241.055 368.667 240.56 368.752 240.14 368.922C239.72 369.092 239.395 369.337 239.165 369.657C238.945 369.967 238.835 370.347 238.835 370.797H234.965C234.965 369.697 235.23 368.802 235.76 368.112C236.29 367.412 237.05 366.902 238.04 366.582C239.04 366.252 240.235 366.087 241.625 366.087C242.885 366.087 243.985 366.292 244.925 366.702C245.865 367.102 246.595 367.722 247.115 368.562C247.635 369.402 247.895 370.477 247.895 371.787V381.057H244.805ZM240.035 381.477C238.785 381.477 237.74 381.262 236.9 380.832C236.07 380.392 235.445 379.817 235.025 379.107C234.605 378.397 234.395 377.627 234.395 376.797C234.395 375.877 234.635 375.107 235.115 374.487C235.605 373.857 236.295 373.387 237.185 373.077C238.075 372.757 239.125 372.597 240.335 372.597C241.125 372.597 241.87 372.657 242.57 372.777C243.28 372.897 243.985 373.057 244.685 373.257V375.327C244.135 375.147 243.535 375.007 242.885 374.907C242.235 374.807 241.625 374.757 241.055 374.757C240.215 374.757 239.525 374.912 238.985 375.222C238.445 375.532 238.175 376.057 238.175 376.797C238.175 377.337 238.395 377.802 238.835 378.192C239.275 378.582 239.975 378.777 240.935 378.777C241.665 378.777 242.285 378.617 242.795 378.297C243.305 377.977 243.69 377.577 243.95 377.097C244.22 376.617 244.355 376.137 244.355 375.657H245.195C245.195 376.707 245 377.677 244.61 378.567C244.22 379.447 243.64 380.152 242.87 380.682C242.11 381.212 241.165 381.477 240.035 381.477ZM143.245 409.477C142.175 409.477 141.265 409.247 140.515 408.787C139.765 408.327 139.19 407.632 138.79 406.702C138.4 405.762 138.205 404.587 138.205 403.177H139.495C139.495 403.827 139.645 404.382 139.945 404.842C140.245 405.302 140.64 405.657 141.13 405.907C141.63 406.147 142.165 406.267 142.735 406.267C143.325 406.267 143.905 406.107 144.475 405.787C145.055 405.457 145.535 404.962 145.915 404.302C146.295 403.632 146.485 402.787 146.485 401.767C146.485 400.837 146.325 400.037 146.005 399.367C145.685 398.687 145.245 398.167 144.685 397.807C144.135 397.447 143.505 397.267 142.795 397.267C142.195 397.267 141.645 397.402 141.145 397.672C140.645 397.942 140.245 398.337 139.945 398.857C139.645 399.367 139.495 399.987 139.495 400.717H138.205C138.205 399.187 138.44 397.937 138.91 396.967C139.38 395.987 140.01 395.262 140.8 394.792C141.59 394.322 142.455 394.087 143.395 394.087C144.545 394.087 145.625 394.392 146.635 395.002C147.655 395.612 148.48 396.492 149.11 397.642C149.74 398.782 150.055 400.157 150.055 401.767C150.055 403.387 149.735 404.772 149.095 405.922C148.455 407.072 147.615 407.952 146.575 408.562C145.545 409.172 144.435 409.477 143.245 409.477ZM135.955 416.167V394.507H138.865L139.495 398.107V416.167H135.955ZM154.266 409.057V394.447H157.806V409.057H154.266ZM156.936 402.667C156.936 400.757 157.151 399.177 157.581 397.927C158.011 396.677 158.586 395.752 159.306 395.152C160.036 394.542 160.846 394.237 161.736 394.237C161.976 394.237 162.201 394.252 162.411 394.282C162.631 394.312 162.846 394.357 163.056 394.417L162.996 397.957C162.736 397.897 162.456 397.847 162.156 397.807C161.856 397.767 161.586 397.747 161.346 397.747C160.566 397.747 159.911 397.937 159.381 398.317C158.861 398.687 158.466 399.237 158.196 399.967C157.936 400.697 157.806 401.597 157.806 402.667H156.936ZM171.773 409.477C170.443 409.477 169.238 409.192 168.158 408.622C167.088 408.052 166.238 407.202 165.608 406.072C164.978 404.932 164.663 403.507 164.663 401.797C164.663 400.057 164.978 398.617 165.608 397.477C166.238 396.337 167.088 395.487 168.158 394.927C169.238 394.367 170.443 394.087 171.773 394.087C173.083 394.087 174.268 394.367 175.328 394.927C176.398 395.487 177.248 396.337 177.878 397.477C178.508 398.617 178.823 400.057 178.823 401.797C178.823 403.507 178.508 404.932 177.878 406.072C177.248 407.202 176.398 408.052 175.328 408.622C174.268 409.192 173.083 409.477 171.773 409.477ZM171.653 406.387C172.353 406.387 172.973 406.217 173.513 405.877C174.063 405.527 174.493 405.012 174.803 404.332C175.123 403.652 175.283 402.807 175.283 401.797C175.283 400.257 174.978 399.097 174.368 398.317C173.768 397.537 172.943 397.147 171.893 397.147C171.183 397.147 170.553 397.322 170.003 397.672C169.453 398.012 169.018 398.527 168.698 399.217C168.388 399.907 168.233 400.767 168.233 401.797C168.233 403.317 168.538 404.462 169.148 405.232C169.768 406.002 170.603 406.387 171.653 406.387ZM190.475 409.477C189.565 409.477 188.73 409.222 187.97 408.712C187.22 408.202 186.62 407.442 186.17 406.432C185.72 405.412 185.495 404.137 185.495 402.607H186.575C186.575 403.337 186.74 403.977 187.07 404.527C187.4 405.077 187.825 405.507 188.345 405.817C188.865 406.117 189.405 406.267 189.965 406.267C190.655 406.267 191.27 406.077 191.81 405.697C192.35 405.317 192.775 404.787 193.085 404.107C193.405 403.427 193.565 402.627 193.565 401.707C193.565 400.817 193.41 400.042 193.1 399.382C192.79 398.712 192.36 398.192 191.81 397.822C191.27 397.452 190.645 397.267 189.935 397.267C189.345 397.267 188.795 397.412 188.285 397.702C187.775 397.982 187.36 398.392 187.04 398.932C186.73 399.462 186.575 400.107 186.575 400.867H185.495C185.495 399.397 185.705 398.157 186.125 397.147C186.555 396.137 187.16 395.377 187.94 394.867C188.73 394.347 189.665 394.087 190.745 394.087C191.925 394.087 192.995 394.402 193.955 395.032C194.925 395.652 195.695 396.537 196.265 397.687C196.845 398.827 197.135 400.167 197.135 401.707C197.135 403.267 196.835 404.632 196.235 405.802C195.645 406.962 194.845 407.867 193.835 408.517C192.825 409.157 191.705 409.477 190.475 409.477ZM183.035 409.057V388.477H186.575V405.457L185.345 409.057H183.035ZM201.463 409.057V388.477H205.003V409.057H201.463ZM216.034 409.477C214.794 409.477 213.659 409.157 212.629 408.517C211.599 407.877 210.774 406.982 210.154 405.832C209.534 404.672 209.224 403.317 209.224 401.767C209.224 400.167 209.529 398.792 210.139 397.642C210.759 396.492 211.584 395.612 212.614 395.002C213.644 394.392 214.784 394.087 216.034 394.087C217.194 394.087 218.194 394.322 219.034 394.792C219.884 395.252 220.564 395.882 221.074 396.682C221.594 397.472 221.944 398.367 222.124 399.367C222.304 400.367 222.314 401.397 222.154 402.457H212.044V400.537H219.649L218.959 400.987C218.989 400.517 218.964 400.042 218.884 399.562C218.814 399.082 218.674 398.642 218.464 398.242C218.254 397.842 217.954 397.522 217.564 397.282C217.184 397.032 216.694 396.907 216.094 396.907C215.374 396.907 214.764 397.087 214.264 397.447C213.764 397.807 213.384 398.297 213.124 398.917C212.864 399.537 212.734 400.237 212.734 401.017V402.427C212.734 403.247 212.854 403.972 213.094 404.602C213.344 405.232 213.709 405.727 214.189 406.087C214.679 406.447 215.294 406.627 216.034 406.627C216.724 406.627 217.304 406.467 217.774 406.147C218.244 405.827 218.544 405.347 218.674 404.707H222.244C222.094 405.647 221.739 406.477 221.179 407.197C220.629 407.907 219.914 408.467 219.034 408.877C218.154 409.277 217.154 409.477 216.034 409.477ZM246.282 409.057V400.537C246.282 399.457 246.022 398.642 245.502 398.092C244.982 397.542 244.302 397.267 243.462 397.267C242.402 397.267 241.567 397.697 240.957 398.557C240.347 399.417 240.042 400.717 240.042 402.457H238.572C238.572 400.927 238.712 399.632 238.992 398.572C239.282 397.502 239.687 396.642 240.207 395.992C240.737 395.332 241.357 394.852 242.067 394.552C242.777 394.242 243.562 394.087 244.422 394.087C245.612 394.087 246.607 394.357 247.407 394.897C248.217 395.427 248.827 396.177 249.237 397.147C249.647 398.117 249.852 399.247 249.852 400.537V409.057H246.282ZM226.512 409.057V394.507H229.602L229.992 396.997C230.472 396.027 231.107 395.302 231.897 394.822C232.687 394.332 233.592 394.087 234.612 394.087C235.812 394.087 236.812 394.357 237.612 394.897C238.422 395.427 239.027 396.177 239.427 397.147C239.837 398.117 240.042 399.247 240.042 400.537V409.057H236.502V400.537C236.502 399.457 236.242 398.642 235.722 398.092C235.202 397.542 234.522 397.267 233.682 397.267C232.972 397.267 232.342 397.462 231.792 397.852C231.252 398.242 230.827 398.832 230.517 399.622C230.207 400.402 230.052 401.377 230.052 402.547V409.057H226.512Z" fill="#002139"/>
<path d="M429.544 219.222V199.752H433.084V219.222H429.544ZM444.055 219.642C442.835 219.642 441.72 219.322 440.71 218.682C439.71 218.032 438.91 217.127 438.31 215.967C437.72 214.797 437.425 213.432 437.425 211.872C437.425 210.332 437.71 208.992 438.28 207.852C438.86 206.702 439.63 205.817 440.59 205.197C441.56 204.567 442.635 204.252 443.815 204.252C444.895 204.252 445.83 204.512 446.62 205.032C447.41 205.542 448.015 206.302 448.435 207.312C448.855 208.322 449.065 209.562 449.065 211.032H447.955C447.955 210.272 447.8 209.627 447.49 209.097C447.18 208.557 446.77 208.147 446.26 207.867C445.76 207.577 445.215 207.432 444.625 207.432C443.915 207.432 443.285 207.617 442.735 207.987C442.195 208.357 441.77 208.877 441.46 209.547C441.15 210.207 440.995 210.982 440.995 211.872C440.995 212.792 441.15 213.592 441.46 214.272C441.77 214.952 442.195 215.482 442.735 215.862C443.285 216.242 443.905 216.432 444.595 216.432C445.155 216.432 445.69 216.282 446.2 215.982C446.72 215.672 447.14 215.242 447.46 214.692C447.79 214.142 447.955 213.502 447.955 212.772H449.065C449.065 214.302 448.835 215.577 448.375 216.597C447.925 217.607 447.32 218.367 446.56 218.877C445.8 219.387 444.965 219.642 444.055 219.642ZM448.615 219.222L447.955 215.622V198.642H451.525V219.222H448.615ZM462.543 219.642C461.303 219.642 460.168 219.322 459.138 218.682C458.108 218.042 457.283 217.147 456.663 215.997C456.043 214.837 455.733 213.482 455.733 211.932C455.733 210.332 456.038 208.957 456.648 207.807C457.268 206.657 458.093 205.777 459.123 205.167C460.153 204.557 461.293 204.252 462.543 204.252C463.703 204.252 464.703 204.487 465.543 204.957C466.393 205.417 467.073 206.047 467.583 206.847C468.103 207.637 468.453 208.532 468.633 209.532C468.813 210.532 468.823 211.562 468.663 212.622H458.553V210.702H466.158L465.468 211.152C465.498 210.682 465.473 210.207 465.393 209.727C465.323 209.247 465.183 208.807 464.973 208.407C464.763 208.007 464.463 207.687 464.073 207.447C463.693 207.197 463.203 207.072 462.603 207.072C461.883 207.072 461.273 207.252 460.773 207.612C460.273 207.972 459.893 208.462 459.633 209.082C459.373 209.702 459.243 210.402 459.243 211.182V212.592C459.243 213.412 459.363 214.137 459.603 214.767C459.853 215.397 460.218 215.892 460.698 216.252C461.188 216.612 461.803 216.792 462.543 216.792C463.233 216.792 463.813 216.632 464.283 216.312C464.753 215.992 465.053 215.512 465.183 214.872H468.753C468.603 215.812 468.248 216.642 467.688 217.362C467.138 218.072 466.423 218.632 465.543 219.042C464.663 219.442 463.663 219.642 462.543 219.642ZM482.291 219.222L481.841 215.682V209.832C481.841 208.812 481.631 208.057 481.211 207.567C480.801 207.077 480.101 206.832 479.111 206.832C478.541 206.832 478.046 206.917 477.626 207.087C477.206 207.257 476.881 207.502 476.651 207.822C476.431 208.132 476.321 208.512 476.321 208.962H472.451C472.451 207.862 472.716 206.967 473.246 206.277C473.776 205.577 474.536 205.067 475.526 204.747C476.526 204.417 477.721 204.252 479.111 204.252C480.371 204.252 481.471 204.457 482.411 204.867C483.351 205.267 484.081 205.887 484.601 206.727C485.121 207.567 485.381 208.642 485.381 209.952V219.222H482.291ZM477.521 219.642C476.271 219.642 475.226 219.427 474.386 218.997C473.556 218.557 472.931 217.982 472.511 217.272C472.091 216.562 471.881 215.792 471.881 214.962C471.881 214.042 472.121 213.272 472.601 212.652C473.091 212.022 473.781 211.552 474.671 211.242C475.561 210.922 476.611 210.762 477.821 210.762C478.611 210.762 479.356 210.822 480.056 210.942C480.766 211.062 481.471 211.222 482.171 211.422V213.492C481.621 213.312 481.021 213.172 480.371 213.072C479.721 212.972 479.111 212.922 478.541 212.922C477.701 212.922 477.011 213.077 476.471 213.387C475.931 213.697 475.661 214.222 475.661 214.962C475.661 215.502 475.881 215.967 476.321 216.357C476.761 216.747 477.461 216.942 478.421 216.942C479.151 216.942 479.771 216.782 480.281 216.462C480.791 216.142 481.176 215.742 481.436 215.262C481.706 214.782 481.841 214.302 481.841 213.822H482.681C482.681 214.872 482.486 215.842 482.096 216.732C481.706 217.612 481.126 218.317 480.356 218.847C479.596 219.377 478.651 219.642 477.521 219.642ZM495.49 219.642C494.63 219.642 493.84 219.482 493.12 219.162C492.41 218.842 491.84 218.352 491.41 217.692C490.99 217.032 490.78 216.192 490.78 215.172V200.802H494.32V215.052C494.32 216.252 494.89 216.852 496.03 216.852C496.38 216.852 496.73 216.812 497.08 216.732C497.43 216.652 497.83 216.532 498.28 216.372L498.79 218.862C498.23 219.082 497.685 219.267 497.155 219.417C496.625 219.567 496.07 219.642 495.49 219.642ZM488.74 207.012V204.672H498.28V207.012H488.74ZM507.836 219.642C506.596 219.642 505.461 219.322 504.431 218.682C503.401 218.042 502.576 217.147 501.956 215.997C501.336 214.837 501.026 213.482 501.026 211.932C501.026 210.332 501.331 208.957 501.941 207.807C502.561 206.657 503.386 205.777 504.416 205.167C505.446 204.557 506.586 204.252 507.836 204.252C508.996 204.252 509.996 204.487 510.836 204.957C511.686 205.417 512.366 206.047 512.876 206.847C513.396 207.637 513.746 208.532 513.926 209.532C514.106 210.532 514.116 211.562 513.956 212.622H503.846V210.702H511.451L510.761 211.152C510.791 210.682 510.766 210.207 510.686 209.727C510.616 209.247 510.476 208.807 510.266 208.407C510.056 208.007 509.756 207.687 509.366 207.447C508.986 207.197 508.496 207.072 507.896 207.072C507.176 207.072 506.566 207.252 506.066 207.612C505.566 207.972 505.186 208.462 504.926 209.082C504.666 209.702 504.536 210.402 504.536 211.182V212.592C504.536 213.412 504.656 214.137 504.896 214.767C505.146 215.397 505.511 215.892 505.991 216.252C506.481 216.612 507.096 216.792 507.836 216.792C508.526 216.792 509.106 216.632 509.576 216.312C510.046 215.992 510.346 215.512 510.476 214.872H514.046C513.896 215.812 513.541 216.642 512.981 217.362C512.431 218.072 511.716 218.632 510.836 219.042C509.956 219.442 508.956 219.642 507.836 219.642Z" fill="#002139"/>
<path d="M885.584 244.189H891.884C893.864 244.189 895.599 244.589 897.089 245.389C898.579 246.179 899.739 247.304 900.569 248.764C901.399 250.224 901.814 251.949 901.814 253.939C901.814 255.909 901.399 257.624 900.569 259.084C899.739 260.534 898.579 261.659 897.089 262.459C895.599 263.259 893.864 263.659 891.884 263.659H885.584V244.189ZM889.124 247.399V260.479H891.884C893.144 260.479 894.229 260.194 895.139 259.624C896.059 259.054 896.764 258.279 897.254 257.299C897.754 256.309 898.004 255.189 898.004 253.939C898.004 252.669 897.754 251.544 897.254 250.564C896.764 249.584 896.059 248.814 895.139 248.254C894.229 247.684 893.144 247.399 891.884 247.399H889.124ZM911.61 264.079C910.37 264.079 909.235 263.759 908.205 263.119C907.175 262.479 906.35 261.584 905.73 260.434C905.11 259.274 904.8 257.919 904.8 256.369C904.8 254.769 905.105 253.394 905.715 252.244C906.335 251.094 907.16 250.214 908.19 249.604C909.22 248.994 910.36 248.689 911.61 248.689C912.77 248.689 913.77 248.924 914.61 249.394C915.46 249.854 916.14 250.484 916.65 251.284C917.17 252.074 917.52 252.969 917.7 253.969C917.88 254.969 917.89 255.999 917.73 257.059H907.62V255.139H915.225L914.535 255.589C914.565 255.119 914.54 254.644 914.46 254.164C914.39 253.684 914.25 253.244 914.04 252.844C913.83 252.444 913.53 252.124 913.14 251.884C912.76 251.634 912.27 251.509 911.67 251.509C910.95 251.509 910.34 251.689 909.84 252.049C909.34 252.409 908.96 252.899 908.7 253.519C908.44 254.139 908.31 254.839 908.31 255.619V257.029C908.31 257.849 908.43 258.574 908.67 259.204C908.92 259.834 909.285 260.329 909.765 260.689C910.255 261.049 910.87 261.229 911.61 261.229C912.3 261.229 912.88 261.069 913.35 260.749C913.82 260.429 914.12 259.949 914.25 259.309H917.82C917.67 260.249 917.315 261.079 916.755 261.799C916.205 262.509 915.49 263.069 914.61 263.479C913.73 263.879 912.73 264.079 911.61 264.079ZM927.518 264.079C926.118 264.079 924.913 263.889 923.903 263.509C922.903 263.119 922.133 262.564 921.593 261.844C921.053 261.114 920.778 260.239 920.768 259.219H924.038C924.068 259.939 924.353 260.464 924.893 260.794C925.433 261.124 926.168 261.289 927.098 261.289C927.608 261.289 928.058 261.214 928.448 261.064C928.848 260.914 929.158 260.709 929.378 260.449C929.598 260.189 929.708 259.899 929.708 259.579C929.708 259.169 929.558 258.849 929.258 258.619C928.968 258.379 928.498 258.159 927.848 257.959L924.668 256.819C923.528 256.409 922.653 255.869 922.043 255.199C921.433 254.529 921.128 253.729 921.128 252.799C921.128 251.569 921.683 250.579 922.793 249.829C923.913 249.069 925.408 248.689 927.278 248.689C929.138 248.689 930.573 249.099 931.583 249.919C932.603 250.729 933.128 251.759 933.158 253.009H929.828C929.778 252.529 929.548 252.149 929.138 251.869C928.728 251.589 928.108 251.449 927.278 251.449C926.528 251.449 925.938 251.604 925.508 251.914C925.088 252.214 924.878 252.569 924.878 252.979C924.878 253.669 925.468 254.189 926.648 254.539L930.098 255.829C931.218 256.209 932.088 256.699 932.708 257.299C933.328 257.899 933.638 258.659 933.638 259.579C933.638 260.349 933.378 261.079 932.858 261.769C932.348 262.449 931.633 263.004 930.713 263.434C929.793 263.864 928.728 264.079 927.518 264.079ZM939.978 246.439C939.288 246.439 938.748 246.259 938.358 245.899C937.978 245.529 937.788 245.019 937.788 244.369C937.788 243.739 937.978 243.239 938.358 242.869C938.748 242.489 939.288 242.299 939.978 242.299C940.658 242.299 941.193 242.489 941.583 242.869C941.973 243.239 942.168 243.739 942.168 244.369C942.168 245.019 941.973 245.529 941.583 245.899C941.193 246.259 940.658 246.439 939.978 246.439ZM938.208 263.659V249.049H941.748V263.659H938.208ZM953.362 271.189C951.692 271.189 950.262 270.959 949.072 270.499C947.892 270.039 946.987 269.434 946.357 268.684C945.727 267.944 945.412 267.139 945.412 266.269C945.412 265.239 945.787 264.439 946.537 263.869C947.287 263.309 948.232 263.029 949.372 263.029L951.952 263.989C950.972 263.989 950.217 264.174 949.687 264.544C949.157 264.914 948.892 265.429 948.892 266.089C948.892 266.779 949.287 267.329 950.077 267.739C950.877 268.159 951.972 268.369 953.362 268.369C954.372 268.369 955.247 268.219 955.987 267.919C956.727 267.619 957.297 267.229 957.697 266.749C958.107 266.269 958.312 265.759 958.312 265.219C958.312 264.859 958.192 264.564 957.952 264.334C957.712 264.104 957.342 263.989 956.842 263.989H951.952C950.972 263.989 950.077 263.834 949.267 263.524C948.467 263.204 947.827 262.779 947.347 262.249C946.877 261.709 946.642 261.109 946.642 260.449C946.642 259.839 946.812 259.314 947.152 258.874C947.492 258.424 947.952 258.079 948.532 257.839C949.122 257.599 949.782 257.479 950.512 257.479L951.412 258.649C951.122 258.649 950.842 258.709 950.572 258.829C950.312 258.939 950.097 259.104 949.927 259.324C949.757 259.544 949.672 259.819 949.672 260.149C949.672 260.549 949.842 260.874 950.182 261.124C950.522 261.374 951.112 261.499 951.952 261.499H956.842C958.392 261.499 959.607 261.784 960.487 262.354C961.377 262.924 961.822 263.799 961.822 264.979C961.822 266.029 961.477 267.024 960.787 267.964C960.097 268.914 959.117 269.689 957.847 270.289C956.587 270.889 955.092 271.189 953.362 271.189ZM953.542 259.159C952.392 259.159 951.337 258.944 950.377 258.514C949.427 258.074 948.667 257.464 948.097 256.684C947.527 255.904 947.242 254.989 947.242 253.939C947.242 252.869 947.527 251.939 948.097 251.149C948.667 250.359 949.427 249.754 950.377 249.334C951.337 248.904 952.392 248.689 953.542 248.689C954.662 248.689 955.697 248.904 956.647 249.334C957.597 249.754 958.362 250.359 958.942 251.149C959.522 251.939 959.812 252.869 959.812 253.939C959.812 254.989 959.522 255.904 958.942 256.684C958.362 257.464 957.597 258.074 956.647 258.514C955.697 258.944 954.662 259.159 953.542 259.159ZM953.572 256.699C954.492 256.699 955.182 256.434 955.642 255.904C956.102 255.374 956.332 254.719 956.332 253.939C956.332 253.099 956.097 252.424 955.627 251.914C955.167 251.404 954.472 251.149 953.542 251.149C952.642 251.149 951.952 251.404 951.472 251.914C950.992 252.424 950.752 253.099 950.752 253.939C950.752 254.719 950.992 255.374 951.472 255.904C951.962 256.434 952.662 256.699 953.572 256.699ZM958.702 251.029L957.082 250.099C957.082 249.229 957.282 248.469 957.682 247.819C958.092 247.159 958.632 246.649 959.302 246.289C959.982 245.929 960.732 245.749 961.552 245.749L961.372 249.139C960.502 249.139 959.837 249.294 959.377 249.604C958.927 249.904 958.702 250.379 958.702 251.029ZM975.203 263.659V255.139C975.203 254.059 974.943 253.244 974.423 252.694C973.903 252.144 973.223 251.869 972.383 251.869C971.673 251.869 971.043 252.064 970.493 252.454C969.953 252.844 969.528 253.434 969.218 254.224C968.908 255.004 968.753 255.979 968.753 257.149H967.583C967.583 255.259 967.818 253.689 968.288 252.439C968.758 251.179 969.423 250.239 970.283 249.619C971.143 248.999 972.153 248.689 973.313 248.689C974.513 248.689 975.513 248.959 976.313 249.499C977.123 250.029 977.728 250.779 978.128 251.749C978.538 252.719 978.743 253.849 978.743 255.139V263.659H975.203ZM965.213 263.659V249.109H968.303L968.753 251.989V263.659H965.213ZM984.444 267.739L981.834 266.419C982.494 266.089 983.079 265.709 983.589 265.279C984.099 264.849 984.434 264.359 984.594 263.809C984.044 263.699 983.569 263.469 983.169 263.119C982.779 262.769 982.584 262.309 982.584 261.739C982.584 261.139 982.814 260.634 983.274 260.224C983.734 259.814 984.314 259.609 985.014 259.609C985.904 259.609 986.599 259.919 987.099 260.539C987.609 261.159 987.864 261.894 987.864 262.744C987.864 263.714 987.559 264.654 986.949 265.564C986.339 266.484 985.504 267.209 984.444 267.739ZM892.874 292.079C891.804 292.079 890.894 291.849 890.144 291.389C889.394 290.929 888.819 290.234 888.419 289.304C888.029 288.364 887.834 287.189 887.834 285.779H889.124C889.124 286.429 889.274 286.984 889.574 287.444C889.874 287.904 890.269 288.259 890.759 288.509C891.259 288.749 891.794 288.869 892.364 288.869C892.954 288.869 893.534 288.709 894.104 288.389C894.684 288.059 895.164 287.564 895.544 286.904C895.924 286.234 896.114 285.389 896.114 284.369C896.114 283.439 895.954 282.639 895.634 281.969C895.314 281.289 894.874 280.769 894.314 280.409C893.764 280.049 893.134 279.869 892.424 279.869C891.824 279.869 891.274 280.004 890.774 280.274C890.274 280.544 889.874 280.939 889.574 281.459C889.274 281.969 889.124 282.589 889.124 283.319H887.834C887.834 281.789 888.069 280.539 888.539 279.569C889.009 278.589 889.639 277.864 890.429 277.394C891.219 276.924 892.084 276.689 893.024 276.689C894.174 276.689 895.254 276.994 896.264 277.604C897.284 278.214 898.109 279.094 898.739 280.244C899.369 281.384 899.684 282.759 899.684 284.369C899.684 285.989 899.364 287.374 898.724 288.524C898.084 289.674 897.244 290.554 896.204 291.164C895.174 291.774 894.064 292.079 892.874 292.079ZM885.584 298.769V277.109H888.494L889.124 280.709V298.769H885.584ZM903.894 291.659V277.049H907.434V291.659H903.894ZM906.564 285.269C906.564 283.359 906.779 281.779 907.209 280.529C907.639 279.279 908.214 278.354 908.934 277.754C909.664 277.144 910.474 276.839 911.364 276.839C911.604 276.839 911.829 276.854 912.039 276.884C912.259 276.914 912.474 276.959 912.684 277.019L912.624 280.559C912.364 280.499 912.084 280.449 911.784 280.409C911.484 280.369 911.214 280.349 910.974 280.349C910.194 280.349 909.539 280.539 909.009 280.919C908.489 281.289 908.094 281.839 907.824 282.569C907.564 283.299 907.434 284.199 907.434 285.269H906.564ZM921.402 292.079C920.072 292.079 918.867 291.794 917.787 291.224C916.717 290.654 915.867 289.804 915.237 288.674C914.607 287.534 914.292 286.109 914.292 284.399C914.292 282.659 914.607 281.219 915.237 280.079C915.867 278.939 916.717 278.089 917.787 277.529C918.867 276.969 920.072 276.689 921.402 276.689C922.712 276.689 923.897 276.969 924.957 277.529C926.027 278.089 926.877 278.939 927.507 280.079C928.137 281.219 928.452 282.659 928.452 284.399C928.452 286.109 928.137 287.534 927.507 288.674C926.877 289.804 926.027 290.654 924.957 291.224C923.897 291.794 922.712 292.079 921.402 292.079ZM921.282 288.989C921.982 288.989 922.602 288.819 923.142 288.479C923.692 288.129 924.122 287.614 924.432 286.934C924.752 286.254 924.912 285.409 924.912 284.399C924.912 282.859 924.607 281.699 923.997 280.919C923.397 280.139 922.572 279.749 921.522 279.749C920.812 279.749 920.182 279.924 919.632 280.274C919.082 280.614 918.647 281.129 918.327 281.819C918.017 282.509 917.862 283.369 917.862 284.399C917.862 285.919 918.167 287.064 918.777 287.834C919.397 288.604 920.232 288.989 921.282 288.989ZM937.584 292.079C936.724 292.079 935.934 291.919 935.214 291.599C934.504 291.279 933.934 290.789 933.504 290.129C933.084 289.469 932.874 288.629 932.874 287.609V273.239H936.414V287.489C936.414 288.689 936.984 289.289 938.124 289.289C938.474 289.289 938.824 289.249 939.174 289.169C939.524 289.089 939.924 288.969 940.374 288.809L940.884 291.299C940.324 291.519 939.779 291.704 939.249 291.854C938.719 292.004 938.164 292.079 937.584 292.079ZM930.834 279.449V277.109H940.374V279.449H930.834ZM950.23 292.079C948.9 292.079 947.695 291.794 946.615 291.224C945.545 290.654 944.695 289.804 944.065 288.674C943.435 287.534 943.12 286.109 943.12 284.399C943.12 282.659 943.435 281.219 944.065 280.079C944.695 278.939 945.545 278.089 946.615 277.529C947.695 276.969 948.9 276.689 950.23 276.689C951.54 276.689 952.725 276.969 953.785 277.529C954.855 278.089 955.705 278.939 956.335 280.079C956.965 281.219 957.28 282.659 957.28 284.399C957.28 286.109 956.965 287.534 956.335 288.674C955.705 289.804 954.855 290.654 953.785 291.224C952.725 291.794 951.54 292.079 950.23 292.079ZM950.11 288.989C950.81 288.989 951.43 288.819 951.97 288.479C952.52 288.129 952.95 287.614 953.26 286.934C953.58 286.254 953.74 285.409 953.74 284.399C953.74 282.859 953.435 281.699 952.825 280.919C952.225 280.139 951.4 279.749 950.35 279.749C949.64 279.749 949.01 279.924 948.46 280.274C947.91 280.614 947.475 281.129 947.155 281.819C946.845 282.509 946.69 283.369 946.69 284.399C946.69 285.919 946.995 287.064 947.605 287.834C948.225 288.604 949.06 288.989 950.11 288.989ZM966.412 292.079C965.552 292.079 964.762 291.919 964.042 291.599C963.332 291.279 962.762 290.789 962.332 290.129C961.912 289.469 961.702 288.629 961.702 287.609V273.239H965.242V287.489C965.242 288.689 965.812 289.289 966.952 289.289C967.302 289.289 967.652 289.249 968.002 289.169C968.352 289.089 968.752 288.969 969.202 288.809L969.712 291.299C969.152 291.519 968.607 291.704 968.077 291.854C967.547 292.004 966.992 292.079 966.412 292.079ZM959.662 279.449V277.109H969.202V279.449H959.662ZM971.108 277.109H975.128L978.998 288.569H978.368L981.698 277.109H985.298L979.718 294.299C979.148 296.019 978.443 297.264 977.603 298.034C976.773 298.804 975.758 299.189 974.558 299.189C973.868 299.189 973.193 299.109 972.533 298.949C971.883 298.799 971.218 298.559 970.538 298.229V295.109C971.088 295.449 971.618 295.699 972.128 295.859C972.648 296.019 973.168 296.099 973.688 296.099C974.158 296.099 974.568 295.969 974.918 295.709C975.278 295.459 975.588 295.104 975.848 294.644C976.108 294.194 976.328 293.669 976.508 293.069L976.958 291.659L971.108 277.109ZM995.735 292.079C994.665 292.079 993.755 291.849 993.005 291.389C992.255 290.929 991.68 290.234 991.28 289.304C990.89 288.364 990.695 287.189 990.695 285.779H991.985C991.985 286.429 992.135 286.984 992.435 287.444C992.735 287.904 993.13 288.259 993.62 288.509C994.12 288.749 994.655 288.869 995.225 288.869C995.815 288.869 996.395 288.709 996.965 288.389C997.545 288.059 998.025 287.564 998.405 286.904C998.785 286.234 998.975 285.389 998.975 284.369C998.975 283.439 998.815 282.639 998.495 281.969C998.175 281.289 997.735 280.769 997.175 280.409C996.625 280.049 995.995 279.869 995.285 279.869C994.685 279.869 994.135 280.004 993.635 280.274C993.135 280.544 992.735 280.939 992.435 281.459C992.135 281.969 991.985 282.589 991.985 283.319H990.695C990.695 281.789 990.93 280.539 991.4 279.569C991.87 278.589 992.5 277.864 993.29 277.394C994.08 276.924 994.945 276.689 995.885 276.689C997.035 276.689 998.115 276.994 999.125 277.604C1000.15 278.214 1000.97 279.094 1001.6 280.244C1002.23 281.384 1002.55 282.759 1002.55 284.369C1002.55 285.989 1002.23 287.374 1001.59 288.524C1000.95 289.674 1000.11 290.554 999.065 291.164C998.035 291.774 996.925 292.079 995.735 292.079ZM988.445 298.769V277.109H991.355L991.985 280.709V298.769H988.445ZM1012.19 292.079C1010.95 292.079 1009.81 291.759 1008.78 291.119C1007.75 290.479 1006.93 289.584 1006.31 288.434C1005.69 287.274 1005.38 285.919 1005.38 284.369C1005.38 282.769 1005.68 281.394 1006.29 280.244C1006.91 279.094 1007.74 278.214 1008.77 277.604C1009.8 276.994 1010.94 276.689 1012.19 276.689C1013.35 276.689 1014.35 276.924 1015.19 277.394C1016.04 277.854 1016.72 278.484 1017.23 279.284C1017.75 280.074 1018.1 280.969 1018.28 281.969C1018.46 282.969 1018.47 283.999 1018.31 285.059H1008.2V283.139H1015.8L1015.11 283.589C1015.14 283.119 1015.12 282.644 1015.04 282.164C1014.97 281.684 1014.83 281.244 1014.62 280.844C1014.41 280.444 1014.11 280.124 1013.72 279.884C1013.34 279.634 1012.85 279.509 1012.25 279.509C1011.53 279.509 1010.92 279.689 1010.42 280.049C1009.92 280.409 1009.54 280.899 1009.28 281.519C1009.02 282.139 1008.89 282.839 1008.89 283.619V285.029C1008.89 285.849 1009.01 286.574 1009.25 287.204C1009.5 287.834 1009.86 288.329 1010.34 288.689C1010.83 289.049 1011.45 289.229 1012.19 289.229C1012.88 289.229 1013.46 289.069 1013.93 288.749C1014.4 288.429 1014.7 287.949 1014.83 287.309H1018.4C1018.25 288.249 1017.89 289.079 1017.33 289.799C1016.78 290.509 1016.07 291.069 1015.19 291.479C1014.31 291.879 1013.31 292.079 1012.19 292.079ZM1023.2 295.739L1020.59 294.419C1021.25 294.089 1021.84 293.709 1022.35 293.279C1022.86 292.849 1023.19 292.359 1023.35 291.809C1022.8 291.699 1022.33 291.469 1021.93 291.119C1021.54 290.769 1021.34 290.309 1021.34 289.739C1021.34 289.139 1021.57 288.634 1022.03 288.224C1022.49 287.814 1023.07 287.609 1023.77 287.609C1024.66 287.609 1025.36 287.919 1025.86 288.539C1026.37 289.159 1026.62 289.894 1026.62 290.744C1026.62 291.714 1026.32 292.654 1025.71 293.564C1025.1 294.484 1024.26 295.209 1023.2 295.739ZM890.504 320.079C889.644 320.079 888.854 319.919 888.134 319.599C887.424 319.279 886.854 318.789 886.424 318.129C886.004 317.469 885.794 316.629 885.794 315.609V301.239H889.334V315.489C889.334 316.689 889.904 317.289 891.044 317.289C891.394 317.289 891.744 317.249 892.094 317.169C892.444 317.089 892.844 316.969 893.294 316.809L893.804 319.299C893.244 319.519 892.699 319.704 892.169 319.854C891.639 320.004 891.084 320.079 890.504 320.079ZM883.754 307.449V305.109H893.294V307.449H883.754ZM902.85 320.079C901.61 320.079 900.475 319.759 899.445 319.119C898.415 318.479 897.59 317.584 896.97 316.434C896.35 315.274 896.04 313.919 896.04 312.369C896.04 310.769 896.345 309.394 896.955 308.244C897.575 307.094 898.4 306.214 899.43 305.604C900.46 304.994 901.6 304.689 902.85 304.689C904.01 304.689 905.01 304.924 905.85 305.394C906.7 305.854 907.38 306.484 907.89 307.284C908.41 308.074 908.76 308.969 908.94 309.969C909.12 310.969 909.13 311.999 908.97 313.059H898.86V311.139H906.465L905.775 311.589C905.805 311.119 905.78 310.644 905.7 310.164C905.63 309.684 905.49 309.244 905.28 308.844C905.07 308.444 904.77 308.124 904.38 307.884C904 307.634 903.51 307.509 902.91 307.509C902.19 307.509 901.58 307.689 901.08 308.049C900.58 308.409 900.2 308.899 899.94 309.519C899.68 310.139 899.55 310.839 899.55 311.619V313.029C899.55 313.849 899.67 314.574 899.91 315.204C900.16 315.834 900.525 316.329 901.005 316.689C901.495 317.049 902.11 317.229 902.85 317.229C903.54 317.229 904.12 317.069 904.59 316.749C905.06 316.429 905.36 315.949 905.49 315.309H909.06C908.91 316.249 908.555 317.079 907.995 317.799C907.445 318.509 906.73 319.069 905.85 319.479C904.97 319.879 903.97 320.079 902.85 320.079ZM918.758 320.079C917.358 320.079 916.153 319.889 915.143 319.509C914.143 319.119 913.373 318.564 912.833 317.844C912.293 317.114 912.018 316.239 912.008 315.219H915.278C915.308 315.939 915.593 316.464 916.133 316.794C916.673 317.124 917.408 317.289 918.338 317.289C918.848 317.289 919.298 317.214 919.688 317.064C920.088 316.914 920.398 316.709 920.618 316.449C920.838 316.189 920.948 315.899 920.948 315.579C920.948 315.169 920.798 314.849 920.498 314.619C920.208 314.379 919.738 314.159 919.088 313.959L915.908 312.819C914.768 312.409 913.893 311.869 913.283 311.199C912.673 310.529 912.368 309.729 912.368 308.799C912.368 307.569 912.923 306.579 914.033 305.829C915.153 305.069 916.648 304.689 918.518 304.689C920.378 304.689 921.813 305.099 922.823 305.919C923.843 306.729 924.368 307.759 924.398 309.009H921.068C921.018 308.529 920.788 308.149 920.378 307.869C919.968 307.589 919.348 307.449 918.518 307.449C917.768 307.449 917.178 307.604 916.748 307.914C916.328 308.214 916.118 308.569 916.118 308.979C916.118 309.669 916.708 310.189 917.888 310.539L921.338 311.829C922.458 312.209 923.328 312.699 923.948 313.299C924.568 313.899 924.878 314.659 924.878 315.579C924.878 316.349 924.618 317.079 924.098 317.769C923.588 318.449 922.873 319.004 921.953 319.434C921.033 319.864 919.968 320.079 918.758 320.079ZM934.068 320.079C933.208 320.079 932.418 319.919 931.698 319.599C930.988 319.279 930.418 318.789 929.988 318.129C929.568 317.469 929.358 316.629 929.358 315.609V301.239H932.898V315.489C932.898 316.689 933.468 317.289 934.608 317.289C934.958 317.289 935.308 317.249 935.658 317.169C936.008 317.089 936.408 316.969 936.858 316.809L937.368 319.299C936.808 319.519 936.263 319.704 935.733 319.854C935.203 320.004 934.648 320.079 934.068 320.079ZM927.318 307.449V305.109H936.858V307.449H927.318Z" fill="#002139"/>
<path d="M593.848 619.882V600.412H601.048C603.378 600.412 605.163 600.957 606.403 602.047C607.653 603.137 608.278 604.582 608.278 606.382C608.278 608.152 607.653 609.582 606.403 610.672C605.163 611.752 603.378 612.292 601.048 612.292H597.388V619.882H593.848ZM604.378 619.882L599.218 610.762H602.998L608.998 619.882H604.378ZM597.388 609.922H600.688C601.988 609.922 602.973 609.627 603.643 609.037C604.313 608.437 604.648 607.662 604.648 606.712C604.648 605.742 604.343 604.962 603.733 604.372C603.123 603.772 602.228 603.472 601.048 603.472H597.388V609.922ZM618.585 620.302C617.345 620.302 616.21 619.982 615.18 619.342C614.15 618.702 613.325 617.807 612.705 616.657C612.085 615.497 611.775 614.142 611.775 612.592C611.775 610.992 612.08 609.617 612.69 608.467C613.31 607.317 614.135 606.437 615.165 605.827C616.195 605.217 617.335 604.912 618.585 604.912C619.745 604.912 620.745 605.147 621.585 605.617C622.435 606.077 623.115 606.707 623.625 607.507C624.145 608.297 624.495 609.192 624.675 610.192C624.855 611.192 624.865 612.222 624.705 613.282H614.595V611.362H622.2L621.51 611.812C621.54 611.342 621.515 610.867 621.435 610.387C621.365 609.907 621.225 609.467 621.015 609.067C620.805 608.667 620.505 608.347 620.115 608.107C619.735 607.857 619.245 607.732 618.645 607.732C617.925 607.732 617.315 607.912 616.815 608.272C616.315 608.632 615.935 609.122 615.675 609.742C615.415 610.362 615.285 611.062 615.285 611.842V613.252C615.285 614.072 615.405 614.797 615.645 615.427C615.895 616.057 616.26 616.552 616.74 616.912C617.23 617.272 617.845 617.452 618.585 617.452C619.275 617.452 619.855 617.292 620.325 616.972C620.795 616.652 621.095 616.172 621.225 615.532H624.795C624.645 616.472 624.29 617.302 623.73 618.022C623.18 618.732 622.465 619.292 621.585 619.702C620.705 620.102 619.705 620.302 618.585 620.302ZM629.903 619.882V603.562C629.903 602.512 630.108 601.657 630.518 600.997C630.928 600.337 631.468 599.852 632.138 599.542C632.818 599.222 633.553 599.062 634.343 599.062C634.833 599.062 635.338 599.097 635.858 599.167C636.378 599.237 636.883 599.322 637.373 599.422L636.683 602.152C636.433 602.062 636.173 601.992 635.903 601.942C635.633 601.882 635.373 601.852 635.123 601.852C634.843 601.852 634.578 601.907 634.328 602.017C634.078 602.117 633.873 602.297 633.713 602.557C633.553 602.817 633.473 603.172 633.473 603.622V619.882H629.903ZM627.743 607.672V605.332H636.143V607.672H627.743ZM642.158 602.662C641.468 602.662 640.928 602.482 640.538 602.122C640.158 601.752 639.968 601.242 639.968 600.592C639.968 599.962 640.158 599.462 640.538 599.092C640.928 598.712 641.468 598.522 642.158 598.522C642.838 598.522 643.373 598.712 643.763 599.092C644.153 599.462 644.348 599.962 644.348 600.592C644.348 601.242 644.153 601.752 643.763 602.122C643.373 602.482 642.838 602.662 642.158 602.662ZM640.388 619.882V605.272H643.928V619.882H640.388ZM659.942 619.882V611.362C659.942 610.282 659.682 609.467 659.162 608.917C658.642 608.367 657.962 608.092 657.122 608.092C656.412 608.092 655.782 608.287 655.232 608.677C654.692 609.067 654.267 609.657 653.957 610.447C653.647 611.227 653.492 612.202 653.492 613.372H652.322C652.322 611.482 652.557 609.912 653.027 608.662C653.497 607.402 654.162 606.462 655.022 605.842C655.882 605.222 656.892 604.912 658.052 604.912C659.252 604.912 660.252 605.182 661.052 605.722C661.862 606.252 662.467 607.002 662.867 607.972C663.277 608.942 663.482 610.072 663.482 611.362V619.882H659.942ZM649.952 619.882V605.332H653.042L653.492 608.212V619.882H649.952ZM674.073 620.302C672.833 620.302 671.698 619.982 670.668 619.342C669.638 618.702 668.813 617.807 668.193 616.657C667.573 615.497 667.263 614.142 667.263 612.592C667.263 610.992 667.568 609.617 668.178 608.467C668.798 607.317 669.623 606.437 670.653 605.827C671.683 605.217 672.823 604.912 674.073 604.912C675.233 604.912 676.233 605.147 677.073 605.617C677.923 606.077 678.603 606.707 679.113 607.507C679.633 608.297 679.983 609.192 680.163 610.192C680.343 611.192 680.353 612.222 680.193 613.282H670.083V611.362H677.688L676.998 611.812C677.028 611.342 677.003 610.867 676.923 610.387C676.853 609.907 676.713 609.467 676.503 609.067C676.293 608.667 675.993 608.347 675.603 608.107C675.223 607.857 674.733 607.732 674.133 607.732C673.413 607.732 672.803 607.912 672.303 608.272C671.803 608.632 671.423 609.122 671.163 609.742C670.903 610.362 670.773 611.062 670.773 611.842V613.252C670.773 614.072 670.893 614.797 671.133 615.427C671.383 616.057 671.748 616.552 672.228 616.912C672.718 617.272 673.333 617.452 674.073 617.452C674.763 617.452 675.343 617.292 675.813 616.972C676.283 616.652 676.583 616.172 676.713 615.532H680.283C680.133 616.472 679.778 617.302 679.218 618.022C678.668 618.732 677.953 619.292 677.073 619.702C676.193 620.102 675.193 620.302 674.073 620.302ZM691.839 600.412H695.379V612.532C695.379 614.132 695.784 615.287 696.594 615.997C697.414 616.707 698.459 617.062 699.729 617.062C701.009 617.062 702.054 616.707 702.864 615.997C703.674 615.287 704.079 614.132 704.079 612.532V600.412H707.619V612.532C707.619 614.172 707.304 615.572 706.674 616.732C706.044 617.892 705.139 618.777 703.959 619.387C702.789 619.997 701.379 620.302 699.729 620.302C698.079 620.302 696.664 619.997 695.484 619.387C694.314 618.777 693.414 617.892 692.784 616.732C692.154 615.572 691.839 614.172 691.839 612.532V600.412ZM712.852 619.882V600.412H716.392V619.882H712.852ZM738.851 619.882L738.401 616.342V610.492C738.401 609.472 738.191 608.717 737.771 608.227C737.361 607.737 736.661 607.492 735.671 607.492C735.101 607.492 734.606 607.577 734.186 607.747C733.766 607.917 733.441 608.162 733.211 608.482C732.991 608.792 732.881 609.172 732.881 609.622H729.011C729.011 608.522 729.276 607.627 729.806 606.937C730.336 606.237 731.096 605.727 732.086 605.407C733.086 605.077 734.281 604.912 735.671 604.912C736.931 604.912 738.031 605.117 738.971 605.527C739.911 605.927 740.641 606.547 741.161 607.387C741.681 608.227 741.941 609.302 741.941 610.612V619.882H738.851ZM734.081 620.302C732.831 620.302 731.786 620.087 730.946 619.657C730.116 619.217 729.491 618.642 729.071 617.932C728.651 617.222 728.441 616.452 728.441 615.622C728.441 614.702 728.681 613.932 729.161 613.312C729.651 612.682 730.341 612.212 731.231 611.902C732.121 611.582 733.171 611.422 734.381 611.422C735.171 611.422 735.916 611.482 736.616 611.602C737.326 611.722 738.031 611.882 738.731 612.082V614.152C738.181 613.972 737.581 613.832 736.931 613.732C736.281 613.632 735.671 613.582 735.101 613.582C734.261 613.582 733.571 613.737 733.031 614.047C732.491 614.357 732.221 614.882 732.221 615.622C732.221 616.162 732.441 616.627 732.881 617.017C733.321 617.407 734.021 617.602 734.981 617.602C735.711 617.602 736.331 617.442 736.841 617.122C737.351 616.802 737.736 616.402 737.996 615.922C738.266 615.442 738.401 614.962 738.401 614.482H739.241C739.241 615.532 739.046 616.502 738.656 617.392C738.266 618.272 737.686 618.977 736.916 619.507C736.156 620.037 735.211 620.302 734.081 620.302ZM757.119 619.882V611.362C757.119 610.282 756.859 609.467 756.339 608.917C755.819 608.367 755.139 608.092 754.299 608.092C753.589 608.092 752.959 608.287 752.409 608.677C751.869 609.067 751.444 609.657 751.134 610.447C750.824 611.227 750.669 612.202 750.669 613.372H749.499C749.499 611.482 749.734 609.912 750.204 608.662C750.674 607.402 751.339 606.462 752.199 605.842C753.059 605.222 754.069 604.912 755.229 604.912C756.429 604.912 757.429 605.182 758.229 605.722C759.039 606.252 759.644 607.002 760.044 607.972C760.454 608.942 760.659 610.072 760.659 611.362V619.882H757.119ZM747.129 619.882V605.332H750.219L750.669 608.212V619.882H747.129ZM771.191 620.302C769.971 620.302 768.856 619.982 767.846 619.342C766.846 618.692 766.046 617.787 765.446 616.627C764.856 615.457 764.561 614.092 764.561 612.532C764.561 610.992 764.846 609.652 765.416 608.512C765.996 607.362 766.766 606.477 767.726 605.857C768.696 605.227 769.771 604.912 770.951 604.912C772.031 604.912 772.966 605.172 773.756 605.692C774.546 606.202 775.151 606.962 775.571 607.972C775.991 608.982 776.201 610.222 776.201 611.692H775.091C775.091 610.932 774.936 610.287 774.626 609.757C774.316 609.217 773.906 608.807 773.396 608.527C772.896 608.237 772.351 608.092 771.761 608.092C771.051 608.092 770.421 608.277 769.871 608.647C769.331 609.017 768.906 609.537 768.596 610.207C768.286 610.867 768.131 611.642 768.131 612.532C768.131 613.452 768.286 614.252 768.596 614.932C768.906 615.612 769.331 616.142 769.871 616.522C770.421 616.902 771.041 617.092 771.731 617.092C772.291 617.092 772.826 616.942 773.336 616.642C773.856 616.332 774.276 615.902 774.596 615.352C774.926 614.802 775.091 614.162 775.091 613.432H776.201C776.201 614.962 775.971 616.237 775.511 617.257C775.061 618.267 774.456 619.027 773.696 619.537C772.936 620.047 772.101 620.302 771.191 620.302ZM775.751 619.882L775.091 616.282V599.302H778.661V619.882H775.751ZM603.838 647.882V639.362C603.838 638.282 603.578 637.467 603.058 636.917C602.538 636.367 601.858 636.092 601.018 636.092C600.308 636.092 599.678 636.287 599.128 636.677C598.588 637.067 598.163 637.657 597.853 638.447C597.543 639.227 597.388 640.202 597.388 641.372H596.218C596.218 639.482 596.453 637.912 596.923 636.662C597.393 635.402 598.058 634.462 598.918 633.842C599.778 633.222 600.788 632.912 601.948 632.912C603.148 632.912 604.148 633.182 604.948 633.722C605.758 634.252 606.363 635.002 606.763 635.972C607.173 636.942 607.378 638.072 607.378 639.362V647.882H603.838ZM593.848 647.882V627.302H597.388V647.882H593.848ZM621.81 647.882L621.36 644.342V638.492C621.36 637.472 621.15 636.717 620.73 636.227C620.32 635.737 619.62 635.492 618.63 635.492C618.06 635.492 617.565 635.577 617.145 635.747C616.725 635.917 616.4 636.162 616.17 636.482C615.95 636.792 615.84 637.172 615.84 637.622H611.97C611.97 636.522 612.235 635.627 612.765 634.937C613.295 634.237 614.055 633.727 615.045 633.407C616.045 633.077 617.24 632.912 618.63 632.912C619.89 632.912 620.99 633.117 621.93 633.527C622.87 633.927 623.6 634.547 624.12 635.387C624.64 636.227 624.9 637.302 624.9 638.612V647.882H621.81ZM617.04 648.302C615.79 648.302 614.745 648.087 613.905 647.657C613.075 647.217 612.45 646.642 612.03 645.932C611.61 645.222 611.4 644.452 611.4 643.622C611.4 642.702 611.64 641.932 612.12 641.312C612.61 640.682 613.3 640.212 614.19 639.902C615.08 639.582 616.13 639.422 617.34 639.422C618.13 639.422 618.875 639.482 619.575 639.602C620.285 639.722 620.99 639.882 621.69 640.082V642.152C621.14 641.972 620.54 641.832 619.89 641.732C619.24 641.632 618.63 641.582 618.06 641.582C617.22 641.582 616.53 641.737 615.99 642.047C615.45 642.357 615.18 642.882 615.18 643.622C615.18 644.162 615.4 644.627 615.84 645.017C616.28 645.407 616.98 645.602 617.94 645.602C618.67 645.602 619.29 645.442 619.8 645.122C620.31 644.802 620.695 644.402 620.955 643.922C621.225 643.442 621.36 642.962 621.36 642.482H622.2C622.2 643.532 622.005 644.502 621.615 645.392C621.225 646.272 620.645 646.977 619.875 647.507C619.115 648.037 618.17 648.302 617.04 648.302ZM640.078 647.882V639.362C640.078 638.282 639.818 637.467 639.298 636.917C638.778 636.367 638.098 636.092 637.258 636.092C636.548 636.092 635.918 636.287 635.368 636.677C634.828 637.067 634.403 637.657 634.093 638.447C633.783 639.227 633.628 640.202 633.628 641.372H632.458C632.458 639.482 632.693 637.912 633.163 636.662C633.633 635.402 634.298 634.462 635.158 633.842C636.018 633.222 637.028 632.912 638.188 632.912C639.388 632.912 640.388 633.182 641.188 633.722C641.998 634.252 642.603 635.002 643.003 635.972C643.413 636.942 643.618 638.072 643.618 639.362V647.882H640.078ZM630.088 647.882V633.332H633.178L633.628 636.212V647.882H630.088ZM654.15 648.302C652.93 648.302 651.815 647.982 650.805 647.342C649.805 646.692 649.005 645.787 648.405 644.627C647.815 643.457 647.52 642.092 647.52 640.532C647.52 638.992 647.805 637.652 648.375 636.512C648.955 635.362 649.725 634.477 650.685 633.857C651.655 633.227 652.73 632.912 653.91 632.912C654.99 632.912 655.925 633.172 656.715 633.692C657.505 634.202 658.11 634.962 658.53 635.972C658.95 636.982 659.16 638.222 659.16 639.692H658.05C658.05 638.932 657.895 638.287 657.585 637.757C657.275 637.217 656.865 636.807 656.355 636.527C655.855 636.237 655.31 636.092 654.72 636.092C654.01 636.092 653.38 636.277 652.83 636.647C652.29 637.017 651.865 637.537 651.555 638.207C651.245 638.867 651.09 639.642 651.09 640.532C651.09 641.452 651.245 642.252 651.555 642.932C651.865 643.612 652.29 644.142 652.83 644.522C653.38 644.902 654 645.092 654.69 645.092C655.25 645.092 655.785 644.942 656.295 644.642C656.815 644.332 657.235 643.902 657.555 643.352C657.885 642.802 658.05 642.162 658.05 641.432H659.16C659.16 642.962 658.93 644.237 658.47 645.257C658.02 646.267 657.415 647.027 656.655 647.537C655.895 648.047 655.06 648.302 654.15 648.302ZM658.71 647.882L658.05 644.282V627.302H661.62V647.882H658.71ZM672.937 648.302C671.607 648.302 670.402 648.017 669.322 647.447C668.252 646.877 667.402 646.027 666.772 644.897C666.142 643.757 665.827 642.332 665.827 640.622C665.827 638.882 666.142 637.442 666.772 636.302C667.402 635.162 668.252 634.312 669.322 633.752C670.402 633.192 671.607 632.912 672.937 632.912C674.247 632.912 675.432 633.192 676.492 633.752C677.562 634.312 678.412 635.162 679.042 636.302C679.672 637.442 679.987 638.882 679.987 640.622C679.987 642.332 679.672 643.757 679.042 644.897C678.412 646.027 677.562 646.877 676.492 647.447C675.432 648.017 674.247 648.302 672.937 648.302ZM672.817 645.212C673.517 645.212 674.137 645.042 674.677 644.702C675.227 644.352 675.657 643.837 675.967 643.157C676.287 642.477 676.447 641.632 676.447 640.622C676.447 639.082 676.142 637.922 675.532 637.142C674.932 636.362 674.107 635.972 673.057 635.972C672.347 635.972 671.717 636.147 671.167 636.497C670.617 636.837 670.182 637.352 669.862 638.042C669.552 638.732 669.397 639.592 669.397 640.622C669.397 642.142 669.702 643.287 670.312 644.057C670.932 644.827 671.767 645.212 672.817 645.212ZM685.04 647.882V631.562C685.04 630.512 685.245 629.657 685.655 628.997C686.065 628.337 686.605 627.852 687.275 627.542C687.955 627.222 688.69 627.062 689.48 627.062C689.97 627.062 690.475 627.097 690.995 627.167C691.515 627.237 692.02 627.322 692.51 627.422L691.82 630.152C691.57 630.062 691.31 629.992 691.04 629.942C690.77 629.882 690.51 629.852 690.26 629.852C689.98 629.852 689.715 629.907 689.465 630.017C689.215 630.117 689.01 630.297 688.85 630.557C688.69 630.817 688.61 631.172 688.61 631.622V647.882H685.04ZM682.88 635.672V633.332H691.28V635.672H682.88ZM696.055 647.882V631.562C696.055 630.512 696.26 629.657 696.67 628.997C697.08 628.337 697.62 627.852 698.29 627.542C698.97 627.222 699.705 627.062 700.495 627.062C700.985 627.062 701.49 627.097 702.01 627.167C702.53 627.237 703.035 627.322 703.525 627.422L702.835 630.152C702.585 630.062 702.325 629.992 702.055 629.942C701.785 629.882 701.525 629.852 701.275 629.852C700.995 629.852 700.73 629.907 700.48 630.017C700.23 630.117 700.025 630.297 699.865 630.557C699.705 630.817 699.625 631.172 699.625 631.622V647.882H696.055ZM693.895 635.672V633.332H702.295V635.672H693.895Z" fill="#002139"/>
<path d="M268.116 626.977V607.507H271.656V626.977H268.116ZM282.176 627.397C281.316 627.397 280.526 627.237 279.806 626.917C279.096 626.597 278.526 626.107 278.096 625.447C277.676 624.787 277.466 623.947 277.466 622.927V608.557H281.006V622.807C281.006 624.007 281.576 624.607 282.716 624.607C283.066 624.607 283.416 624.567 283.766 624.487C284.116 624.407 284.516 624.287 284.966 624.127L285.476 626.617C284.916 626.837 284.371 627.022 283.841 627.172C283.311 627.322 282.756 627.397 282.176 627.397ZM275.426 614.767V612.427H284.966V614.767H275.426ZM294.522 627.397C293.282 627.397 292.147 627.077 291.117 626.437C290.087 625.797 289.262 624.902 288.642 623.752C288.022 622.592 287.712 621.237 287.712 619.687C287.712 618.087 288.017 616.712 288.627 615.562C289.247 614.412 290.072 613.532 291.102 612.922C292.132 612.312 293.272 612.007 294.522 612.007C295.682 612.007 296.682 612.242 297.522 612.712C298.372 613.172 299.052 613.802 299.562 614.602C300.082 615.392 300.432 616.287 300.612 617.287C300.792 618.287 300.802 619.317 300.642 620.377H290.532V618.457H298.137L297.447 618.907C297.477 618.437 297.452 617.962 297.372 617.482C297.302 617.002 297.162 616.562 296.952 616.162C296.742 615.762 296.442 615.442 296.052 615.202C295.672 614.952 295.182 614.827 294.582 614.827C293.862 614.827 293.252 615.007 292.752 615.367C292.252 615.727 291.872 616.217 291.612 616.837C291.352 617.457 291.222 618.157 291.222 618.937V620.347C291.222 621.167 291.342 621.892 291.582 622.522C291.832 623.152 292.197 623.647 292.677 624.007C293.167 624.367 293.782 624.547 294.522 624.547C295.212 624.547 295.792 624.387 296.262 624.067C296.732 623.747 297.032 623.267 297.162 622.627H300.732C300.582 623.567 300.227 624.397 299.667 625.117C299.117 625.827 298.402 626.387 297.522 626.797C296.642 627.197 295.642 627.397 294.522 627.397ZM305 626.977V612.367H308.54V626.977H305ZM307.67 620.587C307.67 618.677 307.885 617.097 308.315 615.847C308.745 614.597 309.32 613.672 310.04 613.072C310.77 612.462 311.58 612.157 312.47 612.157C312.71 612.157 312.935 612.172 313.145 612.202C313.365 612.232 313.58 612.277 313.79 612.337L313.73 615.877C313.47 615.817 313.19 615.767 312.89 615.727C312.59 615.687 312.32 615.667 312.08 615.667C311.3 615.667 310.645 615.857 310.115 616.237C309.595 616.607 309.2 617.157 308.93 617.887C308.67 618.617 308.54 619.517 308.54 620.587H307.67ZM326.048 626.977L325.598 623.437V617.587C325.598 616.567 325.388 615.812 324.968 615.322C324.558 614.832 323.858 614.587 322.868 614.587C322.298 614.587 321.803 614.672 321.383 614.842C320.963 615.012 320.638 615.257 320.408 615.577C320.188 615.887 320.078 616.267 320.078 616.717H316.208C316.208 615.617 316.473 614.722 317.003 614.032C317.533 613.332 318.293 612.822 319.283 612.502C320.283 612.172 321.478 612.007 322.868 612.007C324.128 612.007 325.228 612.212 326.168 612.622C327.108 613.022 327.838 613.642 328.358 614.482C328.878 615.322 329.138 616.397 329.138 617.707V626.977H326.048ZM321.278 627.397C320.028 627.397 318.983 627.182 318.143 626.752C317.313 626.312 316.688 625.737 316.268 625.027C315.848 624.317 315.638 623.547 315.638 622.717C315.638 621.797 315.878 621.027 316.358 620.407C316.848 619.777 317.538 619.307 318.428 618.997C319.318 618.677 320.368 618.517 321.578 618.517C322.368 618.517 323.113 618.577 323.813 618.697C324.523 618.817 325.228 618.977 325.928 619.177V621.247C325.378 621.067 324.778 620.927 324.128 620.827C323.478 620.727 322.868 620.677 322.298 620.677C321.458 620.677 320.768 620.832 320.228 621.142C319.688 621.452 319.418 621.977 319.418 622.717C319.418 623.257 319.638 623.722 320.078 624.112C320.518 624.502 321.218 624.697 322.178 624.697C322.908 624.697 323.528 624.537 324.038 624.217C324.548 623.897 324.933 623.497 325.193 623.017C325.463 622.537 325.598 622.057 325.598 621.577H326.438C326.438 622.627 326.243 623.597 325.853 624.487C325.463 625.367 324.883 626.072 324.113 626.602C323.353 627.132 322.408 627.397 321.278 627.397ZM339.247 627.397C338.387 627.397 337.597 627.237 336.877 626.917C336.167 626.597 335.597 626.107 335.167 625.447C334.747 624.787 334.537 623.947 334.537 622.927V608.557H338.077V622.807C338.077 624.007 338.647 624.607 339.787 624.607C340.137 624.607 340.487 624.567 340.837 624.487C341.187 624.407 341.587 624.287 342.037 624.127L342.547 626.617C341.987 626.837 341.442 627.022 340.912 627.172C340.382 627.322 339.827 627.397 339.247 627.397ZM332.497 614.767V612.427H342.037V614.767H332.497ZM351.593 627.397C350.353 627.397 349.218 627.077 348.188 626.437C347.158 625.797 346.333 624.902 345.713 623.752C345.093 622.592 344.783 621.237 344.783 619.687C344.783 618.087 345.088 616.712 345.698 615.562C346.318 614.412 347.143 613.532 348.173 612.922C349.203 612.312 350.343 612.007 351.593 612.007C352.753 612.007 353.753 612.242 354.593 612.712C355.443 613.172 356.123 613.802 356.633 614.602C357.153 615.392 357.503 616.287 357.683 617.287C357.863 618.287 357.873 619.317 357.713 620.377H347.603V618.457H355.208L354.518 618.907C354.548 618.437 354.523 617.962 354.443 617.482C354.373 617.002 354.233 616.562 354.023 616.162C353.813 615.762 353.513 615.442 353.123 615.202C352.743 614.952 352.253 614.827 351.653 614.827C350.933 614.827 350.323 615.007 349.823 615.367C349.323 615.727 348.943 616.217 348.683 616.837C348.423 617.457 348.293 618.157 348.293 618.937V620.347C348.293 621.167 348.413 621.892 348.653 622.522C348.903 623.152 349.268 623.647 349.748 624.007C350.238 624.367 350.853 624.547 351.593 624.547C352.283 624.547 352.863 624.387 353.333 624.067C353.803 623.747 354.103 623.267 354.233 622.627H357.803C357.653 623.567 357.298 624.397 356.738 625.117C356.188 625.827 355.473 626.387 354.593 626.797C353.713 627.197 352.713 627.397 351.593 627.397Z" fill="#002139"/>
<path d="M139.375 349.877L140.019 343.851H135.787L136.109 340.309H140.387L141.169 333.041H136.891L137.259 329.499H141.537L142.181 323.519H147.287L146.643 329.499H152.899L153.543 323.519H158.603L158.005 329.499H162.283L161.915 333.041H157.591L156.855 340.309H161.179L160.811 343.851H156.487L155.843 349.877H150.737L151.381 343.851H145.125L144.481 349.877H139.375ZM145.493 340.309H151.749L152.531 333.041H146.275L145.493 340.309ZM172.345 321.357H176.439V351.395H171.011V327.843C170.198 328.211 169.401 328.495 168.619 328.694C167.837 328.894 167.055 328.993 166.273 328.993V323.795C167.316 323.688 168.328 323.45 169.309 323.082C170.29 322.699 171.302 322.124 172.345 321.357Z" fill="#01BEF4"/>
<path d="M432.964 186.218L433.608 180.192H429.376L429.698 176.65H433.976L434.758 169.382H430.48L430.848 165.84H435.126L435.77 159.86H440.876L440.232 165.84H446.488L447.132 159.86H452.192L451.594 165.84H455.872L455.504 169.382H451.18L450.444 176.65H454.768L454.4 180.192H450.076L449.432 186.218H444.326L444.97 180.192H438.714L438.07 186.218H432.964ZM439.082 176.65H445.338L446.12 169.382H439.864L439.082 176.65ZM460.69 187.736V182.63C460.69 180.959 460.943 179.54 461.449 178.375C461.955 177.21 462.707 176.228 463.703 175.431C464.715 174.618 465.98 173.921 467.498 173.338L473.616 170.992C474.95 170.455 475.932 169.796 476.56 169.014C477.204 168.232 477.526 167.266 477.526 166.116C477.526 164.966 477.105 164 476.261 163.218C475.433 162.421 474.245 162.022 472.696 162.022C471.209 162.022 469.959 162.398 468.947 163.149C467.951 163.885 467.376 164.966 467.222 166.392H461.196C461.242 164.353 461.771 162.658 462.783 161.309C463.795 159.96 465.152 158.955 466.854 158.296C468.556 157.621 470.473 157.284 472.604 157.284C474.613 157.284 476.43 157.667 478.055 158.434C479.681 159.185 480.969 160.243 481.919 161.608C482.885 162.957 483.368 164.537 483.368 166.346C483.368 167.879 483.085 169.229 482.517 170.394C481.965 171.559 481.122 172.579 479.987 173.453C478.853 174.327 477.419 175.101 475.686 175.776L469.522 178.168C468.326 178.628 467.46 179.142 466.923 179.709C466.387 180.261 466.118 180.989 466.118 181.894V182.768H483.184V187.736H460.69Z" fill="#01BEF4"/>
<path d="M889.004 230.654L889.648 224.628H885.416L885.738 221.086H890.016L890.798 213.818H886.52L886.888 210.276H891.166L891.81 204.296H896.916L896.272 210.276H902.528L903.172 204.296H908.232L907.634 210.276H911.912L911.544 213.818H907.22L906.484 221.086H910.808L910.44 224.628H906.116L905.472 230.654H900.366L901.01 224.628H894.754L894.11 230.654H889.004ZM895.122 221.086H901.378L902.16 213.818H895.904L895.122 221.086ZM928.368 232.816C926.788 232.816 925.263 232.602 923.791 232.172C922.319 231.743 921 231.107 919.835 230.263C918.669 229.42 917.742 228.377 917.052 227.135C916.377 225.878 916.04 224.429 916.04 222.788H921.744C921.805 223.831 922.119 224.736 922.687 225.502C923.254 226.254 924.021 226.836 924.987 227.25C925.968 227.649 927.095 227.848 928.368 227.848C930.238 227.848 931.703 227.419 932.761 226.56C933.819 225.702 934.348 224.613 934.348 223.294C934.348 222.436 934.133 221.7 933.704 221.086C933.274 220.458 932.615 219.982 931.726 219.66C930.836 219.323 929.702 219.154 928.322 219.154H924.366V214.876H927.724C929.472 214.876 930.844 214.501 931.841 213.749C932.837 212.998 933.336 211.978 933.336 210.69C933.336 209.54 932.906 208.582 932.048 207.815C931.189 207.033 929.901 206.642 928.184 206.642C926.788 206.642 925.539 206.926 924.435 207.493C923.346 208.061 922.648 209.05 922.342 210.46H916.638C916.852 208.421 917.466 206.757 918.478 205.469C919.505 204.181 920.831 203.238 922.457 202.64C924.082 202.027 925.914 201.72 927.954 201.72C930.116 201.72 932.04 202.073 933.727 202.778C935.413 203.484 936.74 204.465 937.706 205.722C938.687 206.964 939.178 208.406 939.178 210.046C939.178 211.564 938.764 212.891 937.936 214.025C937.108 215.145 935.881 215.98 934.256 216.532C936.065 217.146 937.514 218.058 938.603 219.269C939.691 220.481 940.236 221.991 940.236 223.8C940.236 225.564 939.737 227.128 938.741 228.492C937.759 229.842 936.379 230.9 934.601 231.666C932.822 232.433 930.744 232.816 928.368 232.816Z" fill="#01BEF4"/>
<path d="M597.268 586.878L597.912 580.852H593.68L594.002 577.31H598.28L599.062 570.042H594.784L595.152 566.5H599.43L600.074 560.52H605.18L604.536 566.5H610.792L611.436 560.52H616.496L615.898 566.5H620.176L619.808 570.042H615.484L614.748 577.31H619.072L618.704 580.852H614.38L613.736 586.878H608.63L609.274 580.852H603.018L602.374 586.878H597.268ZM603.386 577.31H609.642L610.424 570.042H604.168L603.386 577.31ZM638.518 558.22H643.762V577.126H648.96V581.772H643.762V588.396H638.38V581.772H623.246V577.678L638.518 558.22ZM638.656 566.27L629.686 577.678H638.656V566.27Z" fill="#01BEF4"/>
<path d="M271.536 593.972L272.18 587.946H267.948L268.27 584.404H272.548L273.33 577.136H269.052L269.42 573.594H273.698L274.342 567.614H279.448L278.804 573.594H285.06L285.704 567.614H290.764L290.166 573.594H294.444L294.076 577.136H289.752L289.016 584.404H293.34L292.972 587.946H288.648L288.004 593.972H282.898L283.542 587.946H277.286L276.642 593.972H271.536ZM277.654 584.404H283.91L284.692 577.136H278.436L277.654 584.404ZM310.163 596.134C308.017 596.134 306.123 595.766 304.482 595.03C302.842 594.279 301.546 593.19 300.595 591.764C299.66 590.338 299.169 588.606 299.123 586.566H304.643C304.643 588.1 305.172 589.25 306.23 590.016C307.288 590.783 308.599 591.166 310.163 591.166C311.835 591.166 313.199 590.63 314.257 589.556C315.331 588.468 315.867 587.134 315.867 585.554C315.867 582.488 313.813 580.954 309.703 580.954H300.595L301.975 565.636H319.869V570.604H306.345L307.403 569.04L306.529 577.918L306.069 577.412C306.805 577.244 307.679 577.121 308.691 577.044C309.703 576.952 310.577 576.906 311.313 576.906C314.395 576.906 316.849 577.658 318.673 579.16C320.513 580.648 321.433 582.779 321.433 585.554C321.433 587.532 320.966 589.326 320.03 590.936C319.095 592.531 317.784 593.796 316.097 594.731C314.411 595.667 312.433 596.134 310.163 596.134Z" fill="#01BEF4"/>
</svg>
