<svg xmlns="http://www.w3.org/2000/svg" width="100" height="100" viewBox="0 0 100 100"><path fill="none" stroke="#000" stroke-width="3.79" stroke-miterlimit="10" d="M43.37 51.817c-3.334 2.364 3.002 5.414 4.72-.08-2.218-.727-5.556-.17-4.867 2.455 3.54 1.293 7.182-4.15 4.356-6.48-3.143-2.585-6.66 3.54-5.44 5.902 4.115.207 13.96-6.526 8.923-10.664-5.957-4.896-16.732 11.13-12.668 15.664 4.875 5.438 21.618-4.658 18.57-10.89-2.138-4.373-8.12-1.4-7.083 2.698C56.81 53.2 67.665 43.988 59.964 39c-4.764-3.083-13.78 1.614-16.924 4.705-2.697 2.656-6.5 8.1-.025 7.832 3.914-.167 13.063-5.89 12.422-10.283-.766-5.25-8.088-4.674-12.468-2.902-4.062 1.646-14.515 9.93-12.524 15.224 1.968 5.23 11.823 4.706 16.256 3.507 4.18-1.123 11.413-4.877 11.418-9.793.006-6.49-9.887-8.13-14.952-5.964-5.377 2.3-15.087 14.08-12.002 20.216 3.443 6.836 16.55 4.565 22.417 2.424 5.97-2.18 20.05-10.21 17.135-18.212-3.01-8.25-13.777-6.32-17.61-.5-3.263 4.948-6.31 14.842-1.323 19.825 5.338 5.333 15.81 3.02 21.006-1.03 5.71-4.448 9.144-11.002 5.772-17.544-3.258-6.325-9.744-15.115-16.756-18.153-7.375-3.196-19.83-2.83-27.355-.233-11.132 3.85-7.735 21.35-5.53 29.548 3.326 12.363 23.088 23.455 36.535 19.26 22.057-6.885 13.182-35.134-4.123-42.06-6.82-2.73-16.898-3.052-20.544 4.295-3.917 7.9-1.994 23.415 3.222 30.454 8.377 11.305 17.73 9.332 25.026-1.857 5.875-9.006 10.645-18.945.135-26.248-8.532-5.927-23.798-11.26-32.32-2.492-4.24 4.357-7.45 14.558-.74 18.397 3.67 2.103 15.02.816 18.245-1.697-7.885-2.627-24.79 10.678-26.832 17.36-1.09 3.562.25 12.265 4.368 13.694 9 3.117 23.54-13.436 28.627-17.924 5.31-4.69 10.748-8.926 9.285-16.365-1.254-6.377-7.14-16.663-13.318-20.104-6.322-3.525-25.347-2.76-28.57 3.92-4.903 10.168.398 29.83 14.305 29.154 3.102-.148 8.785-.594 11.31-2.545 6.478-5.01 3.8-17.74.153-23.393-3.88-6.007-12.377-11.547-20.107-8.6-6.914 2.636-17.838 13.587-19.83 20.27-3.304 11.11 9.41 18.338 18.656 11.58 5.59-4.088 18.955-22.146 4.755-24.686-5.995-1.072-9.02 3.734-11.722 7.86-6.287 9.606-8.782 20.745-.943 30.352 14.157 17.354 32.48 3.336 38.917-11.96 5.294-12.577 9.583-39.902-6.753-48.182-4.682-2.373-12.132-2.882-17.263-1.784-6.625 1.42-10.156 7.555-14.172 12.138-3.894 4.446-10.725 10.49-11.718 16.643C12.46 49.62 19.47 55.21 24.964 57.87c6.735 3.264 15.36 3.768 22.53 1.566 2.686-.826 10.006-3.045 10.934-5.99-11.205-6.092-26.643.14-28 12.457-1.948 17.71 18.59 19.963 32.903 16.676 11.858-2.722 21.314-12.562 22.76-23.93.67-5.265 1.58-12.814-1.15-17.5-3.458-5.934-11.64-9.465-18.534-9.75-10.076-.422-13.504 8.843-6.408 15.123 7.65 6.773 27.764 4.937 24.592-8.167-2.496-10.33-17.2-9.35-25.668-8.164 3.31.962 14.234-1.1 13.465-5.943-1.188-7.46-36.484 3.906-39.632 9.566 3.933.447 11.07-.34 12.112-4.82-7.138-4.88-13.1 16.625-11.83 21.435 1.498.07 3.013-.005 4.527.032"/></svg>