<?xml version="1.0" encoding="utf-8"?>
<!-- Generator: Adobe Illustrator 19.0.0, SVG Export Plug-In . SVG Version: 6.00 Build 0)  -->
<svg version="1.2" baseProfile="tiny" id="Layer_1" xmlns="http://www.w3.org/2000/svg" xmlns:xlink="http://www.w3.org/1999/xlink"
	 x="0px" y="0px" viewBox="0 0 48 48" xml:space="preserve">
<path id="XMLID_799_" fill="#FFFFFF" d="M24,0.5C11,0.5,0.5,11,0.5,24S11,47.5,24,47.5C37,47.5,47.5,37,47.5,24S37,0.5,24,0.5z
	 M39.7,12.7C39,13.6,37.5,14,36.4,14c-0.7,0-1.5,0-2.2,0.1c-4.3,0.1-8.7,0.2-13,0.3c-1.1,1.7-2.1,3.4-3.2,5.1
	c-0.5,0.8-1,1.6-1.5,2.4c4.5-0.4,9.1-0.7,13.6-1.1c1.1-0.1,2.4,0.3,3.3,1.1c0.2,0.2,0.5,0.6,0.4,1c-0.1,0.3-0.6,0.5-0.9,0.5
	c-0.8,0.1-1.7,0.1-2.5,0.2C25.2,24,20,24.4,14.8,24.8c-0.1,0.2-0.2,0.3-0.3,0.5c0,0,0,0,0,0c0,0,0,0-0.1,0.1
	c-0.2,0.4-0.5,0.9-0.7,1.4c-0.2,0.4-0.4,0.9-0.5,1.3c-0.1,0.3-0.1,0.6-0.2,1c-0.1,0.5-0.1,0.4,0,0.8c0,0.7,0.2,1.3,0.4,1.9
	c0.3,0.6,0.6,1,1.2,1.4c0.1,0.1,0.2,0.1,0.3,0.2c0,0,0.1,0.1,0.1,0.1c0.2,0.1,0.4,0.2,0.6,0.2c0.1,0,0.4,0.1,0.5,0.1
	c0.1,0,0.3,0.1,0.3,0.1c0.1,0,0.2,0,0.3,0c0.1,0,0.3,0,0.4,0c-0.1,0-0.1,0,0.1,0c0,0,0.1,0,0.1,0c0.3,0,0.6,0,1,0c0.3,0,0.5,0,0.8,0
	c0.2,0,0.3,0,0.5,0c0,0,0,0,0,0c0.7-0.1,1.3-0.2,2-0.3c0.3,0,0.5-0.1,0.8-0.1c0.2,0,0.3-0.1,0.5-0.1c0.1,0,0.1,0,0.2,0
	c1.1-0.2,2.2-0.6,3.2-0.9c0.5-0.2,1.1-0.3,1.6-0.5c0.1,0,0.2-0.1,0.3-0.1c0.2-0.1,0.4-0.1,0.6-0.2c0.8-0.3,1.7-0.6,2.5-1
	c0.6-0.2,1.1-0.5,1.7-0.7c0.4-0.2,1-0.5,0.1,0c1-0.5,2.4-1,3.5-0.6c1,0.4,0.1,1.3-0.5,1.6c-0.3,0.1-0.6,0.3-0.9,0.4
	c-2.5,1.2-5.1,2.1-7.7,3c-4,1.3-8.2,2.3-12.4,2.3c-2.9,0-6.3-1-6.9-4.3c-0.3-1.9,0.2-3.7,1.1-5.4c0.4-0.7,0.8-1.4,1.2-2.1
	c-0.4-0.2-0.8-0.4-1.1-0.7c-0.2-0.2-0.5-0.6-0.4-1c0.1-0.3,0.6-0.5,0.9-0.5c0.7-0.1,1.3-0.1,2-0.2c1.6-2.7,3.3-5.4,5-8
	c0.4-0.6,0.7-1.1,1.3-1.5c1-0.6,2.1-0.7,3.3-0.7c2,0,3.9-0.1,5.9-0.1c3.7-0.1,7.3-0.2,11-0.3C39,11.6,40.4,11.8,39.7,12.7z"/>
</svg>
