<svg width="1200" height="800" viewBox="0 0 1200 800" fill="none" xmlns="http://www.w3.org/2000/svg"><path fill="#fff" d="M0 0h1200v800H0z"/><path d="M364.98 191.673l4.469-4.972a55 55 0 0 1 40.905-18.233h373.389a54.997 54.997 0 0 1 37.348 14.626l58.145 53.786a55.002 55.002 0 0 1 17.651 40.375v250.958c0 30.376-24.624 55-55 55H349.954a55.001 55.001 0 0 1-40.904-18.232l-37.969-42.241a55 55 0 0 1-14.096-36.767v-23.024a55.002 55.002 0 0 0-16.477-39.256l-43.888-43.069a55 55 0 0 1-16.477-39.255v-76.464c0-30.375 24.625-55 55-55h88.933a55.001 55.001 0 0 0 40.904-18.232z" stroke="#01BEF4" stroke-width="5"/><path fill="#fff" d="M244.569 555.027h87.915V611.4h-87.915zM584.822 555.027h87.915V611.4h-87.915zM864.003 213.432h187.239v127.511H864.003zM141.89 317.454h87.915v177.173H141.89zM415.703 143.637h87.915v56.373h-87.915z"/><path d="M135.955 361.587h6.3c1.98 0 3.715.4 5.205 1.2a8.506 8.506 0 0 1 3.48 3.375c.83 1.46 1.245 3.185 1.245 5.175 0 1.97-.415 3.685-1.245 5.145a8.632 8.632 0 0 1-3.48 3.375c-1.49.8-3.225 1.2-5.205 1.2h-6.3v-19.47zm3.54 3.21v13.08h2.76c1.26 0 2.345-.285 3.255-.855a5.655 5.655 0 0 0 2.115-2.325c.5-.99.75-2.11.75-3.36 0-1.27-.25-2.395-.75-3.375a5.555 5.555 0 0 0-2.115-2.31c-.91-.57-1.995-.855-3.255-.855h-2.76zm22.486 16.68c-1.24 0-2.375-.32-3.405-.96-1.03-.64-1.855-1.535-2.475-2.685-.62-1.16-.93-2.515-.93-4.065 0-1.6.305-2.975.915-4.125.62-1.15 1.445-2.03 2.475-2.64 1.03-.61 2.17-.915 3.42-.915 1.16 0 2.16.235 3 .705.85.46 1.53 1.09 2.04 1.89.52.79.87 1.685 1.05 2.685.18 1 .19 2.03.03 3.09h-10.11v-1.92h7.605l-.69.45c.03-.47.005-.945-.075-1.425-.07-.48-.21-.92-.42-1.32s-.51-.72-.9-.96c-.38-.25-.87-.375-1.47-.375-.72 0-1.33.18-1.83.54-.5.36-.88.85-1.14 1.47-.26.62-.39 1.32-.39 2.1v1.41c0 .82.12 1.545.36 2.175.25.63.615 1.125 1.095 1.485.49.36 1.105.54 1.845.54.69 0 1.27-.16 1.74-.48.47-.32.77-.8.9-1.44h3.57c-.15.94-.505 1.77-1.065 2.49-.55.71-1.265 1.27-2.145 1.68-.88.4-1.88.6-3 .6zm11.318-.42v-16.32c0-1.05.205-1.905.615-2.565.41-.66.95-1.145 1.62-1.455.68-.32 1.415-.48 2.205-.48.49 0 .995.035 1.515.105.52.07 1.025.155 1.515.255l-.69 2.73a4.97 4.97 0 0 0-.78-.21c-.27-.06-.53-.09-.78-.09-.28 0-.545.055-.795.165-.25.1-.455.28-.615.54-.16.26-.24.615-.24 1.065v16.26h-3.57zm-2.16-12.21v-2.34h8.4v2.34h-8.4zm14.415-5.01c-.69 0-1.23-.18-1.62-.54-.38-.37-.57-.88-.57-1.53 0-.63.19-1.13.57-1.5.39-.38.93-.57 1.62-.57.68 0 1.215.19 1.605.57.39.37.585.87.585 1.5 0 .65-.195 1.16-.585 1.53-.39.36-.925.54-1.605.54zm-1.77 17.22v-14.61h3.54v14.61h-3.54zm19.554 0v-8.52c0-1.08-.26-1.895-.78-2.445-.52-.55-1.2-.825-2.04-.825-.71 0-1.34.195-1.89.585-.54.39-.965.98-1.275 1.77-.31.78-.465 1.755-.465 2.925h-1.17c0-1.89.235-3.46.705-4.71.47-1.26 1.135-2.2 1.995-2.82.86-.62 1.87-.93 3.03-.93 1.2 0 2.2.27 3 .81.81.53 1.415 1.28 1.815 2.25.41.97.615 2.1.615 3.39v8.52h-3.54zm-9.99 0v-14.55h3.09l.45 2.88v11.67h-3.54zm24.121.42c-1.24 0-2.375-.32-3.405-.96-1.03-.64-1.855-1.535-2.475-2.685-.62-1.16-.93-2.515-.93-4.065 0-1.6.305-2.975.915-4.125.62-1.15 1.445-2.03 2.475-2.64 1.03-.61 2.17-.915 3.42-.915 1.16 0 2.16.235 3 .705.85.46 1.53 1.09 2.04 1.89.52.79.87 1.685 1.05 2.685.18 1 .19 2.03.03 3.09h-10.11v-1.92h7.605l-.69.45c.03-.47.005-.945-.075-1.425-.07-.48-.21-.92-.42-1.32s-.51-.72-.9-.96c-.38-.25-.87-.375-1.47-.375-.72 0-1.33.18-1.83.54-.5.36-.88.85-1.14 1.47-.26.62-.39 1.32-.39 2.1v1.41c0 .82.12 1.545.36 2.175.25.63.615 1.125 1.095 1.485.49.36 1.105.54 1.845.54.69 0 1.27-.16 1.74-.48.47-.32.77-.8.9-1.44h3.57c-.15.94-.505 1.77-1.065 2.49-.55.71-1.265 1.27-2.145 1.68-.88.4-1.88.6-3 .6zm27.336-.42l-.45-3.54v-5.85c0-1.02-.21-1.775-.63-2.265-.41-.49-1.11-.735-2.1-.735-.57 0-1.065.085-1.485.255-.42.17-.745.415-.975.735-.22.31-.33.69-.33 1.14h-3.87c0-1.1.265-1.995.795-2.685.53-.7 1.29-1.21 2.28-1.53 1-.33 2.195-.495 3.585-.495 1.26 0 2.36.205 3.3.615.94.4 1.67 1.02 2.19 1.86.52.84.78 1.915.78 3.225v9.27h-3.09zm-4.77.42c-1.25 0-2.295-.215-3.135-.645-.83-.44-1.455-1.015-1.875-1.725-.42-.71-.63-1.48-.63-2.31 0-.92.24-1.69.72-2.31.49-.63 1.18-1.1 2.07-1.41.89-.32 1.94-.48 3.15-.48.79 0 1.535.06 2.235.18.71.12 1.415.28 2.115.48v2.07c-.55-.18-1.15-.32-1.8-.42-.65-.1-1.26-.15-1.83-.15-.84 0-1.53.155-2.07.465-.54.31-.81.835-.81 1.575 0 .54.22 1.005.66 1.395.44.39 1.14.585 2.1.585.73 0 1.35-.16 1.86-.48.51-.32.895-.72 1.155-1.2.27-.48.405-.96.405-1.44h.84c0 1.05-.195 2.02-.585 2.91-.39.88-.97 1.585-1.74 2.115-.76.53-1.705.795-2.835.795zm-96.79 28c-1.07 0-1.98-.23-2.73-.69-.75-.46-1.325-1.155-1.725-2.085-.39-.94-.585-2.115-.585-3.525h1.29c0 .65.15 1.205.45 1.665.3.46.695.815 1.185 1.065.5.24 1.035.36 1.605.36.59 0 1.17-.16 1.74-.48.58-.33 1.06-.825 1.44-1.485.38-.67.57-1.515.57-2.535 0-.93-.16-1.73-.48-2.4-.32-.68-.76-1.2-1.32-1.56-.55-.36-1.18-.54-1.89-.54-.6 0-1.15.135-1.65.405s-.9.665-1.2 1.185c-.3.51-.45 1.13-.45 1.86h-1.29c0-1.53.235-2.78.705-3.75.47-.98 1.1-1.705 1.89-2.175a4.983 4.983 0 0 1 2.595-.705c1.15 0 2.23.305 3.24.915 1.02.61 1.845 1.49 2.475 2.64.63 1.14.945 2.515.945 4.125 0 1.62-.32 3.005-.96 4.155-.64 1.15-1.48 2.03-2.52 2.64-1.03.61-2.14.915-3.33.915zm-7.29 6.69v-21.66h2.91l.63 3.6v18.06h-3.54zm18.311-7.11v-14.61h3.54v14.61h-3.54zm2.67-6.39c0-1.91.215-3.49.645-4.74.43-1.25 1.005-2.175 1.725-2.775.73-.61 1.54-.915 2.43-.915a4.78 4.78 0 0 1 1.32.18l-.06 3.54c-.26-.06-.54-.11-.84-.15-.3-.04-.57-.06-.81-.06-.78 0-1.435.19-1.965.57-.52.37-.915.92-1.185 1.65-.26.73-.39 1.63-.39 2.7h-.87zm14.837 6.81c-1.33 0-2.535-.285-3.615-.855-1.07-.57-1.92-1.42-2.55-2.55-.63-1.14-.945-2.565-.945-4.275 0-1.74.315-3.18.945-4.32.63-1.14 1.48-1.99 2.55-2.55 1.08-.56 2.285-.84 3.615-.84 1.31 0 2.495.28 3.555.84 1.07.56 1.92 1.41 2.55 2.55.63 1.14.945 2.58.945 4.32 0 1.71-.315 3.135-.945 4.275-.63 1.13-1.48 1.98-2.55 2.55-1.06.57-2.245.855-3.555.855zm-.12-3.09c.7 0 1.32-.17 1.86-.51.55-.35.98-.865 1.29-1.545.32-.68.48-1.525.48-2.535 0-1.54-.305-2.7-.915-3.48-.6-.78-1.425-1.17-2.475-1.17-.71 0-1.34.175-1.89.525-.55.34-.985.855-1.305 1.545-.31.69-.465 1.55-.465 2.58 0 1.52.305 2.665.915 3.435.62.77 1.455 1.155 2.505 1.155zm18.822 3.09c-.91 0-1.745-.255-2.505-.765-.75-.51-1.35-1.27-1.8-2.28-.45-1.02-.675-2.295-.675-3.825h1.08c0 .73.165 1.37.495 1.92.33.55.755.98 1.275 1.29.52.3 1.06.45 1.62.45.69 0 1.305-.19 1.845-.57.54-.38.965-.91 1.275-1.59.32-.68.48-1.48.48-2.4 0-.89-.155-1.665-.465-2.325-.31-.67-.74-1.19-1.29-1.56-.54-.37-1.165-.555-1.875-.555-.59 0-1.14.145-1.65.435-.51.28-.925.69-1.245 1.23-.31.53-.465 1.175-.465 1.935h-1.08c0-1.47.21-2.71.63-3.72.43-1.01 1.035-1.77 1.815-2.28.79-.52 1.725-.78 2.805-.78 1.18 0 2.25.315 3.21.945.97.62 1.74 1.505 2.31 2.655.58 1.14.87 2.48.87 4.02 0 1.56-.3 2.925-.9 4.095-.59 1.16-1.39 2.065-2.4 2.715a6.15 6.15 0 0 1-3.36.96zm-7.44-.42v-20.58h3.54v16.98l-1.23 3.6h-2.31zm18.428 0v-20.58h3.54v20.58h-3.54zm14.571.42c-1.24 0-2.375-.32-3.405-.96-1.03-.64-1.855-1.535-2.475-2.685-.62-1.16-.93-2.515-.93-4.065 0-1.6.305-2.975.915-4.125.62-1.15 1.445-2.03 2.475-2.64 1.03-.61 2.17-.915 3.42-.915 1.16 0 2.16.235 3 .705.85.46 1.53 1.09 2.04 1.89.52.79.87 1.685 1.05 2.685.18 1 .19 2.03.03 3.09h-10.11v-1.92h7.605l-.69.45c.03-.47.005-.945-.075-1.425-.07-.48-.21-.92-.42-1.32s-.51-.72-.9-.96c-.38-.25-.87-.375-1.47-.375-.72 0-1.33.18-1.83.54-.5.36-.88.85-1.14 1.47-.26.62-.39 1.32-.39 2.1v1.41c0 .82.12 1.545.36 2.175.25.63.615 1.125 1.095 1.485.49.36 1.105.54 1.845.54.69 0 1.27-.16 1.74-.48.47-.32.77-.8.9-1.44h3.57c-.15.94-.505 1.77-1.065 2.49-.55.71-1.265 1.27-2.145 1.68-.88.4-1.88.6-3 .6zm30.248-.42v-8.52c0-1.08-.26-1.895-.78-2.445-.52-.55-1.2-.825-2.04-.825-1.06 0-1.895.43-2.505 1.29-.61.86-.915 2.16-.915 3.9h-1.47c0-1.53.14-2.825.42-3.885.29-1.07.695-1.93 1.215-2.58.53-.66 1.15-1.14 1.86-1.44.71-.31 1.495-.465 2.355-.465 1.19 0 2.185.27 2.985.81.81.53 1.42 1.28 1.83 2.25.41.97.615 2.1.615 3.39v8.52h-3.57zm-19.77 0v-14.55h3.09l.39 2.49c.48-.97 1.115-1.695 1.905-2.175.79-.49 1.695-.735 2.715-.735 1.2 0 2.2.27 3 .81.81.53 1.415 1.28 1.815 2.25.41.97.615 2.1.615 3.39v8.52h-3.54v-8.52c0-1.08-.26-1.895-.78-2.445-.52-.55-1.2-.825-2.04-.825-.71 0-1.34.195-1.89.585-.54.39-.965.98-1.275 1.77-.31.78-.465 1.755-.465 2.925v6.51h-3.54zM429.544 219.222v-19.47h3.54v19.47h-3.54zm14.511.42c-1.22 0-2.335-.32-3.345-.96-1-.65-1.8-1.555-2.4-2.715-.59-1.17-.885-2.535-.885-4.095 0-1.54.285-2.88.855-4.02.58-1.15 1.35-2.035 2.31-2.655a5.797 5.797 0 0 1 3.225-.945c1.08 0 2.015.26 2.805.78.79.51 1.395 1.27 1.815 2.28.42 1.01.63 2.25.63 3.72h-1.11c0-.76-.155-1.405-.465-1.935a3.16 3.16 0 0 0-1.23-1.23 3.202 3.202 0 0 0-1.635-.435c-.71 0-1.34.185-1.89.555-.54.37-.965.89-1.275 1.56-.31.66-.465 1.435-.465 2.325 0 .92.155 1.72.465 2.4.31.68.735 1.21 1.275 1.59.55.38 1.17.57 1.86.57.56 0 1.095-.15 1.605-.45.52-.31.94-.74 1.26-1.29.33-.55.495-1.19.495-1.92h1.11c0 1.53-.23 2.805-.69 3.825-.45 1.01-1.055 1.77-1.815 2.28-.76.51-1.595.765-2.505.765zm4.56-.42l-.66-3.6v-16.98h3.57v20.58h-2.91zm13.928.42c-1.24 0-2.375-.32-3.405-.96-1.03-.64-1.855-1.535-2.475-2.685-.62-1.16-.93-2.515-.93-4.065 0-1.6.305-2.975.915-4.125.62-1.15 1.445-2.03 2.475-2.64 1.03-.61 2.17-.915 3.42-.915 1.16 0 2.16.235 3 .705.85.46 1.53 1.09 2.04 1.89.52.79.87 1.685 1.05 2.685.18 1 .19 2.03.03 3.09h-10.11v-1.92h7.605l-.69.45c.03-.47.005-.945-.075-1.425-.07-.48-.21-.92-.42-1.32s-.51-.72-.9-.96c-.38-.25-.87-.375-1.47-.375-.72 0-1.33.18-1.83.54-.5.36-.88.85-1.14 1.47-.26.62-.39 1.32-.39 2.1v1.41c0 .82.12 1.545.36 2.175.25.63.615 1.125 1.095 1.485.49.36 1.105.54 1.845.54.69 0 1.27-.16 1.74-.48.47-.32.77-.8.9-1.44h3.57c-.15.94-.505 1.77-1.065 2.49-.55.71-1.265 1.27-2.145 1.68-.88.4-1.88.6-3 .6zm19.748-.42l-.45-3.54v-5.85c0-1.02-.21-1.775-.63-2.265-.41-.49-1.11-.735-2.1-.735-.57 0-1.065.085-1.485.255-.42.17-.745.415-.975.735-.22.31-.33.69-.33 1.14h-3.87c0-1.1.265-1.995.795-2.685.53-.7 1.29-1.21 2.28-1.53 1-.33 2.195-.495 3.585-.495 1.26 0 2.36.205 3.3.615.94.4 1.67 1.02 2.19 1.86.52.84.78 1.915.78 3.225v9.27h-3.09zm-4.77.42c-1.25 0-2.295-.215-3.135-.645-.83-.44-1.455-1.015-1.875-1.725-.42-.71-.63-1.48-.63-2.31 0-.92.24-1.69.72-2.31.49-.63 1.18-1.1 2.07-1.41.89-.32 1.94-.48 3.15-.48.79 0 1.535.06 2.235.18.71.12 1.415.28 2.115.48v2.07c-.55-.18-1.15-.32-1.8-.42-.65-.1-1.26-.15-1.83-.15-.84 0-1.53.155-2.07.465-.54.31-.81.835-.81 1.575 0 .54.22 1.005.66 1.395.44.39 1.14.585 2.1.585.73 0 1.35-.16 1.86-.48.51-.32.895-.72 1.155-1.2.27-.48.405-.96.405-1.44h.84c0 1.05-.195 2.02-.585 2.91-.39.88-.97 1.585-1.74 2.115-.76.53-1.705.795-2.835.795zm17.969 0c-.86 0-1.65-.16-2.37-.48-.71-.32-1.28-.81-1.71-1.47-.42-.66-.63-1.5-.63-2.52v-14.37h3.54v14.25c0 1.2.57 1.8 1.71 1.8.35 0 .7-.04 1.05-.12.35-.08.75-.2 1.2-.36l.51 2.49c-.56.22-1.105.405-1.635.555-.53.15-1.085.225-1.665.225zm-6.75-12.63v-2.34h9.54v2.34h-9.54zm19.096 12.63c-1.24 0-2.375-.32-3.405-.96-1.03-.64-1.855-1.535-2.475-2.685-.62-1.16-.93-2.515-.93-4.065 0-1.6.305-2.975.915-4.125.62-1.15 1.445-2.03 2.475-2.64 1.03-.61 2.17-.915 3.42-.915 1.16 0 2.16.235 3 .705.85.46 1.53 1.09 2.04 1.89.52.79.87 1.685 1.05 2.685.18 1 .19 2.03.03 3.09h-10.11v-1.92h7.605l-.69.45c.03-.47.005-.945-.075-1.425-.07-.48-.21-.92-.42-1.32s-.51-.72-.9-.96c-.38-.25-.87-.375-1.47-.375-.72 0-1.33.18-1.83.54-.5.36-.88.85-1.14 1.47-.26.62-.39 1.32-.39 2.1v1.41c0 .82.12 1.545.36 2.175.25.63.615 1.125 1.095 1.485.49.36 1.105.54 1.845.54.69 0 1.27-.16 1.74-.48.47-.32.77-.8.9-1.44h3.57c-.15.94-.505 1.77-1.065 2.49-.55.71-1.265 1.27-2.145 1.68-.88.4-1.88.6-3 .6zM885.584 244.189h6.3c1.98 0 3.715.4 5.205 1.2a8.506 8.506 0 0 1 3.48 3.375c.83 1.46 1.245 3.185 1.245 5.175 0 1.97-.415 3.685-1.245 5.145a8.632 8.632 0 0 1-3.48 3.375c-1.49.8-3.225 1.2-5.205 1.2h-6.3v-19.47zm3.54 3.21v13.08h2.76c1.26 0 2.345-.285 3.255-.855a5.655 5.655 0 0 0 2.115-2.325c.5-.99.75-2.11.75-3.36 0-1.27-.25-2.395-.75-3.375a5.555 5.555 0 0 0-2.115-2.31c-.91-.57-1.995-.855-3.255-.855h-2.76zm22.486 16.68c-1.24 0-2.375-.32-3.405-.96-1.03-.64-1.855-1.535-2.475-2.685-.62-1.16-.93-2.515-.93-4.065 0-1.6.305-2.975.915-4.125.62-1.15 1.445-2.03 2.475-2.64 1.03-.61 2.17-.915 3.42-.915 1.16 0 2.16.235 3 .705.85.46 1.53 1.09 2.04 1.89.52.79.87 1.685 1.05 2.685.18 1 .19 2.03.03 3.09h-10.11v-1.92h7.605l-.69.45c.03-.47.005-.945-.075-1.425-.07-.48-.21-.92-.42-1.32s-.51-.72-.9-.96c-.38-.25-.87-.375-1.47-.375-.72 0-1.33.18-1.83.54-.5.36-.88.85-1.14 1.47-.26.62-.39 1.32-.39 2.1v1.41c0 .82.12 1.545.36 2.175.25.63.615 1.125 1.095 1.485.49.36 1.105.54 1.845.54.69 0 1.27-.16 1.74-.48.47-.32.77-.8.9-1.44h3.57c-.15.94-.505 1.77-1.065 2.49-.55.71-1.265 1.27-2.145 1.68-.88.4-1.88.6-3 .6zm15.908 0c-1.4 0-2.605-.19-3.615-.57-1-.39-1.77-.945-2.31-1.665-.54-.73-.815-1.605-.825-2.625h3.27c.03.72.315 1.245.855 1.575.54.33 1.275.495 2.205.495.51 0 .96-.075 1.35-.225.4-.15.71-.355.93-.615.22-.26.33-.55.33-.87 0-.41-.15-.73-.45-.96-.29-.24-.76-.46-1.41-.66l-3.18-1.14c-1.14-.41-2.015-.95-2.625-1.62-.61-.67-.915-1.47-.915-2.4 0-1.23.555-2.22 1.665-2.97 1.12-.76 2.615-1.14 4.485-1.14 1.86 0 3.295.41 4.305 1.23 1.02.81 1.545 1.84 1.575 3.09h-3.33c-.05-.48-.28-.86-.69-1.14-.41-.28-1.03-.42-1.86-.42-.75 0-1.34.155-1.77.465-.42.3-.63.655-.63 1.065 0 .69.59 1.21 1.77 1.56l3.45 1.29c1.12.38 1.99.87 2.61 1.47.62.6.93 1.36.93 2.28 0 .77-.26 1.5-.78 2.19-.51.68-1.225 1.235-2.145 1.665-.92.43-1.985.645-3.195.645zm12.46-17.64c-.69 0-1.23-.18-1.62-.54-.38-.37-.57-.88-.57-1.53 0-.63.19-1.13.57-1.5.39-.38.93-.57 1.62-.57.68 0 1.215.19 1.605.57.39.37.585.87.585 1.5 0 .65-.195 1.16-.585 1.53-.39.36-.925.54-1.605.54zm-1.77 17.22v-14.61h3.54v14.61h-3.54zm15.154 7.53c-1.67 0-3.1-.23-4.29-.69-1.18-.46-2.085-1.065-2.715-1.815-.63-.74-.945-1.545-.945-2.415 0-1.03.375-1.83 1.125-2.4.75-.56 1.695-.84 2.835-.84l2.58.96c-.98 0-1.735.185-2.265.555-.53.37-.795.885-.795 1.545 0 .69.395 1.24 1.185 1.65.8.42 1.895.63 3.285.63 1.01 0 1.885-.15 2.625-.45.74-.3 1.31-.69 1.71-1.17.41-.48.615-.99.615-1.53 0-.36-.12-.655-.36-.885-.24-.23-.61-.345-1.11-.345h-4.89c-.98 0-1.875-.155-2.685-.465-.8-.32-1.44-.745-1.92-1.275-.47-.54-.705-1.14-.705-1.8 0-.61.17-1.135.51-1.575.34-.45.8-.795 1.38-1.035.59-.24 1.25-.36 1.98-.36l.9 1.17c-.29 0-.57.06-.84.18-.26.11-.475.275-.645.495-.17.22-.255.495-.255.825 0 .4.17.725.51.975.34.25.93.375 1.77.375h4.89c1.55 0 2.765.285 3.645.855.89.57 1.335 1.445 1.335 2.625 0 1.05-.345 2.045-1.035 2.985-.69.95-1.67 1.725-2.94 2.325-1.26.6-2.755.9-4.485.9zm.18-12.03c-1.15 0-2.205-.215-3.165-.645-.95-.44-1.71-1.05-2.28-1.83-.57-.78-.855-1.695-.855-2.745 0-1.07.285-2 .855-2.79.57-.79 1.33-1.395 2.28-1.815.96-.43 2.015-.645 3.165-.645 1.12 0 2.155.215 3.105.645.95.42 1.715 1.025 2.295 1.815.58.79.87 1.72.87 2.79 0 1.05-.29 1.965-.87 2.745-.58.78-1.345 1.39-2.295 1.83-.95.43-1.985.645-3.105.645zm.03-2.46c.92 0 1.61-.265 2.07-.795.46-.53.69-1.185.69-1.965 0-.84-.235-1.515-.705-2.025-.46-.51-1.155-.765-2.085-.765-.9 0-1.59.255-2.07.765-.48.51-.72 1.185-.72 2.025 0 .78.24 1.435.72 1.965.49.53 1.19.795 2.1.795zm5.13-5.67l-1.62-.93c0-.87.2-1.63.6-2.28.41-.66.95-1.17 1.62-1.53.68-.36 1.43-.54 2.25-.54l-.18 3.39c-.87 0-1.535.155-1.995.465-.45.3-.675.775-.675 1.425zm16.501 12.63v-8.52c0-1.08-.26-1.895-.78-2.445-.52-.55-1.2-.825-2.04-.825-.71 0-1.34.195-1.89.585-.54.39-.965.98-1.275 1.77-.31.78-.465 1.755-.465 2.925h-1.17c0-1.89.235-3.46.705-4.71.47-1.26 1.135-2.2 1.995-2.82.86-.62 1.87-.93 3.03-.93 1.2 0 2.2.27 3 .81.81.53 1.415 1.28 1.815 2.25.41.97.615 2.1.615 3.39v8.52h-3.54zm-9.99 0v-14.55h3.09l.45 2.88v11.67h-3.54zm19.231 4.08l-2.61-1.32c.66-.33 1.245-.71 1.755-1.14.51-.43.845-.92 1.005-1.47a3.022 3.022 0 0 1-1.425-.69c-.39-.35-.585-.81-.585-1.38 0-.6.23-1.105.69-1.515.46-.41 1.04-.615 1.74-.615.89 0 1.585.31 2.085.93.51.62.765 1.355.765 2.205 0 .97-.305 1.91-.915 2.82-.61.92-1.445 1.645-2.505 2.175zm-91.57 24.34c-1.07 0-1.98-.23-2.73-.69-.75-.46-1.325-1.155-1.725-2.085-.39-.94-.585-2.115-.585-3.525h1.29c0 .65.15 1.205.45 1.665.3.46.695.815 1.185 1.065.5.24 1.035.36 1.605.36.59 0 1.17-.16 1.74-.48.58-.33 1.06-.825 1.44-1.485.38-.67.57-1.515.57-2.535 0-.93-.16-1.73-.48-2.4-.32-.68-.76-1.2-1.32-1.56-.55-.36-1.18-.54-1.89-.54-.6 0-1.15.135-1.65.405s-.9.665-1.2 1.185c-.3.51-.45 1.13-.45 1.86h-1.29c0-1.53.235-2.78.705-3.75.47-.98 1.1-1.705 1.89-2.175a4.983 4.983 0 0 1 2.595-.705c1.15 0 2.23.305 3.24.915 1.02.61 1.845 1.49 2.475 2.64.63 1.14.945 2.515.945 4.125 0 1.62-.32 3.005-.96 4.155-.64 1.15-1.48 2.03-2.52 2.64-1.03.61-2.14.915-3.33.915zm-7.29 6.69v-21.66h2.91l.63 3.6v18.06h-3.54zm18.31-7.11v-14.61h3.54v14.61h-3.54zm2.67-6.39c0-1.91.215-3.49.645-4.74.43-1.25 1.005-2.175 1.725-2.775.73-.61 1.54-.915 2.43-.915a4.78 4.78 0 0 1 1.32.18l-.06 3.54c-.26-.06-.54-.11-.84-.15-.3-.04-.57-.06-.81-.06-.78 0-1.435.19-1.965.57-.52.37-.915.92-1.185 1.65-.26.73-.39 1.63-.39 2.7h-.87zm14.838 6.81c-1.33 0-2.535-.285-3.615-.855-1.07-.57-1.92-1.42-2.55-2.55-.63-1.14-.945-2.565-.945-4.275 0-1.74.315-3.18.945-4.32.63-1.14 1.48-1.99 2.55-2.55 1.08-.56 2.285-.84 3.615-.84 1.31 0 2.495.28 3.555.84 1.07.56 1.92 1.41 2.55 2.55.63 1.14.945 2.58.945 4.32 0 1.71-.315 3.135-.945 4.275-.63 1.13-1.48 1.98-2.55 2.55-1.06.57-2.245.855-3.555.855zm-.12-3.09c.7 0 1.32-.17 1.86-.51.55-.35.98-.865 1.29-1.545.32-.68.48-1.525.48-2.535 0-1.54-.305-2.7-.915-3.48-.6-.78-1.425-1.17-2.475-1.17-.71 0-1.34.175-1.89.525-.55.34-.985.855-1.305 1.545-.31.69-.465 1.55-.465 2.58 0 1.52.305 2.665.915 3.435.62.77 1.455 1.155 2.505 1.155zm16.302 3.09c-.86 0-1.65-.16-2.37-.48-.71-.32-1.28-.81-1.71-1.47-.42-.66-.63-1.5-.63-2.52v-14.37h3.54v14.25c0 1.2.57 1.8 1.71 1.8.35 0 .7-.04 1.05-.12.35-.08.75-.2 1.2-.36l.51 2.49c-.56.22-1.105.405-1.635.555-.53.15-1.085.225-1.665.225zm-6.75-12.63v-2.34h9.54v2.34h-9.54zm19.396 12.63c-1.33 0-2.535-.285-3.615-.855-1.07-.57-1.92-1.42-2.55-2.55-.63-1.14-.945-2.565-.945-4.275 0-1.74.315-3.18.945-4.32.63-1.14 1.48-1.99 2.55-2.55 1.08-.56 2.285-.84 3.615-.84 1.31 0 2.495.28 3.555.84 1.07.56 1.92 1.41 2.55 2.55.63 1.14.945 2.58.945 4.32 0 1.71-.315 3.135-.945 4.275-.63 1.13-1.48 1.98-2.55 2.55-1.06.57-2.245.855-3.555.855zm-.12-3.09c.7 0 1.32-.17 1.86-.51.55-.35.98-.865 1.29-1.545.32-.68.48-1.525.48-2.535 0-1.54-.305-2.7-.915-3.48-.6-.78-1.425-1.17-2.475-1.17-.71 0-1.34.175-1.89.525-.55.34-.985.855-1.305 1.545-.31.69-.465 1.55-.465 2.58 0 1.52.305 2.665.915 3.435.62.77 1.455 1.155 2.505 1.155zm16.302 3.09c-.86 0-1.65-.16-2.37-.48-.71-.32-1.28-.81-1.71-1.47-.42-.66-.63-1.5-.63-2.52v-14.37h3.54v14.25c0 1.2.57 1.8 1.71 1.8.35 0 .7-.04 1.05-.12.35-.08.75-.2 1.2-.36l.51 2.49c-.56.22-1.105.405-1.635.555-.53.15-1.085.225-1.665.225zm-6.75-12.63v-2.34h9.54v2.34h-9.54zm11.446-2.34h4.02l3.87 11.46h-.63l3.33-11.46h3.6l-5.58 17.19c-.57 1.72-1.275 2.965-2.115 3.735-.83.77-1.845 1.155-3.045 1.155-.69 0-1.365-.08-2.025-.24a9.444 9.444 0 0 1-1.995-.72v-3.12c.55.34 1.08.59 1.59.75.52.16 1.04.24 1.56.24.47 0 .88-.13 1.23-.39.36-.25.67-.605.93-1.065.26-.45.48-.975.66-1.575l.45-1.41-5.85-14.55zm24.627 14.97c-1.07 0-1.98-.23-2.73-.69-.75-.46-1.325-1.155-1.725-2.085-.39-.94-.585-2.115-.585-3.525h1.29c0 .65.15 1.205.45 1.665.3.46.695.815 1.185 1.065.5.24 1.035.36 1.605.36.59 0 1.17-.16 1.74-.48.58-.33 1.06-.825 1.44-1.485.38-.67.57-1.515.57-2.535 0-.93-.16-1.73-.48-2.4-.32-.68-.76-1.2-1.32-1.56-.55-.36-1.18-.54-1.89-.54-.6 0-1.15.135-1.65.405s-.9.665-1.2 1.185c-.3.51-.45 1.13-.45 1.86h-1.29c0-1.53.235-2.78.705-3.75.47-.98 1.1-1.705 1.89-2.175a4.983 4.983 0 0 1 2.595-.705c1.15 0 2.23.305 3.24.915 1.025.61 1.845 1.49 2.475 2.64.63 1.14.95 2.515.95 4.125 0 1.62-.32 3.005-.96 4.155-.64 1.15-1.48 2.03-2.525 2.64-1.03.61-2.14.915-3.33.915zm-7.29 6.69v-21.66h2.91l.63 3.6v18.06h-3.54zm23.745-6.69c-1.24 0-2.38-.32-3.41-.96-1.03-.64-1.85-1.535-2.47-2.685-.62-1.16-.93-2.515-.93-4.065 0-1.6.3-2.975.91-4.125.62-1.15 1.45-2.03 2.48-2.64 1.03-.61 2.17-.915 3.42-.915 1.16 0 2.16.235 3 .705.85.46 1.53 1.09 2.04 1.89.52.79.87 1.685 1.05 2.685.18 1 .19 2.03.03 3.09h-10.11v-1.92h7.6l-.69.45c.03-.47.01-.945-.07-1.425-.07-.48-.21-.92-.42-1.32s-.51-.72-.9-.96c-.38-.25-.87-.375-1.47-.375-.72 0-1.33.18-1.83.54-.5.36-.88.85-1.14 1.47-.26.62-.39 1.32-.39 2.1v1.41c0 .82.12 1.545.36 2.175.25.63.61 1.125 1.09 1.485.49.36 1.11.54 1.85.54.69 0 1.27-.16 1.74-.48.47-.32.77-.8.9-1.44h3.57c-.15.94-.51 1.77-1.07 2.49-.55.71-1.26 1.27-2.14 1.68-.88.4-1.88.6-3 .6zm11.01 3.66l-2.61-1.32c.66-.33 1.25-.71 1.76-1.14.51-.43.84-.92 1-1.47-.55-.11-1.02-.34-1.42-.69-.39-.35-.59-.81-.59-1.38 0-.6.23-1.105.69-1.515.46-.41 1.04-.615 1.74-.615.89 0 1.59.31 2.09.93.51.62.76 1.355.76 2.205 0 .97-.3 1.91-.91 2.82-.61.92-1.45 1.645-2.51 2.175zm-132.696 24.34c-.86 0-1.65-.16-2.37-.48-.71-.32-1.28-.81-1.71-1.47-.42-.66-.63-1.5-.63-2.52v-14.37h3.54v14.25c0 1.2.57 1.8 1.71 1.8.35 0 .7-.04 1.05-.12.35-.08.75-.2 1.2-.36l.51 2.49c-.56.22-1.105.405-1.635.555-.53.15-1.085.225-1.665.225zm-6.75-12.63v-2.34h9.54v2.34h-9.54zm19.096 12.63c-1.24 0-2.375-.32-3.405-.96-1.03-.64-1.855-1.535-2.475-2.685-.62-1.16-.93-2.515-.93-4.065 0-1.6.305-2.975.915-4.125.62-1.15 1.445-2.03 2.475-2.64 1.03-.61 2.17-.915 3.42-.915 1.16 0 2.16.235 3 .705.85.46 1.53 1.09 2.04 1.89.52.79.87 1.685 1.05 2.685.18 1 .19 2.03.03 3.09h-10.11v-1.92h7.605l-.69.45c.03-.47.005-.945-.075-1.425-.07-.48-.21-.92-.42-1.32s-.51-.72-.9-.96c-.38-.25-.87-.375-1.47-.375-.72 0-1.33.18-1.83.54-.5.36-.88.85-1.14 1.47-.26.62-.39 1.32-.39 2.1v1.41c0 .82.12 1.545.36 2.175.25.63.615 1.125 1.095 1.485.49.36 1.105.54 1.845.54.69 0 1.27-.16 1.74-.48.47-.32.77-.8.9-1.44h3.57c-.15.94-.505 1.77-1.065 2.49-.55.71-1.265 1.27-2.145 1.68-.88.4-1.88.6-3 .6zm15.908 0c-1.4 0-2.605-.19-3.615-.57-1-.39-1.77-.945-2.31-1.665-.54-.73-.815-1.605-.825-2.625h3.27c.03.72.315 1.245.855 1.575.54.33 1.275.495 2.205.495.51 0 .96-.075 1.35-.225.4-.15.71-.355.93-.615.22-.26.33-.55.33-.87 0-.41-.15-.73-.45-.96-.29-.24-.76-.46-1.41-.66l-3.18-1.14c-1.14-.41-2.015-.95-2.625-1.62-.61-.67-.915-1.47-.915-2.4 0-1.23.555-2.22 1.665-2.97 1.12-.76 2.615-1.14 4.485-1.14 1.86 0 3.295.41 4.305 1.23 1.02.81 1.545 1.84 1.575 3.09h-3.33c-.05-.48-.28-.86-.69-1.14-.41-.28-1.03-.42-1.86-.42-.75 0-1.34.155-1.77.465-.42.3-.63.655-.63 1.065 0 .69.59 1.21 1.77 1.56l3.45 1.29c1.12.38 1.99.87 2.61 1.47.62.6.93 1.36.93 2.28 0 .77-.26 1.5-.78 2.19-.51.68-1.225 1.235-2.145 1.665-.92.43-1.985.645-3.195.645zm15.31 0c-.86 0-1.65-.16-2.37-.48-.71-.32-1.28-.81-1.71-1.47-.42-.66-.63-1.5-.63-2.52v-14.37h3.54v14.25c0 1.2.57 1.8 1.71 1.8.35 0 .7-.04 1.05-.12.35-.08.75-.2 1.2-.36l.51 2.49c-.56.22-1.105.405-1.635.555-.53.15-1.085.225-1.665.225zm-6.75-12.63v-2.34h9.54v2.34h-9.54zM593.848 619.882v-19.47h7.2c2.33 0 4.115.545 5.355 1.635 1.25 1.09 1.875 2.535 1.875 4.335 0 1.77-.625 3.2-1.875 4.29-1.24 1.08-3.025 1.62-5.355 1.62h-3.66v7.59h-3.54zm10.53 0l-5.16-9.12h3.78l6 9.12h-4.62zm-6.99-9.96h3.3c1.3 0 2.285-.295 2.955-.885.67-.6 1.005-1.375 1.005-2.325 0-.97-.305-1.75-.915-2.34-.61-.6-1.505-.9-2.685-.9h-3.66v6.45zm21.197 10.38c-1.24 0-2.375-.32-3.405-.96-1.03-.64-1.855-1.535-2.475-2.685-.62-1.16-.93-2.515-.93-4.065 0-1.6.305-2.975.915-4.125.62-1.15 1.445-2.03 2.475-2.64 1.03-.61 2.17-.915 3.42-.915 1.16 0 2.16.235 3 .705.85.46 1.53 1.09 2.04 1.89.52.79.87 1.685 1.05 2.685.18 1 .19 2.03.03 3.09h-10.11v-1.92h7.605l-.69.45c.03-.47.005-.945-.075-1.425-.07-.48-.21-.92-.42-1.32s-.51-.72-.9-.96c-.38-.25-.87-.375-1.47-.375-.72 0-1.33.18-1.83.54-.5.36-.88.85-1.14 1.47-.26.62-.39 1.32-.39 2.1v1.41c0 .82.12 1.545.36 2.175.25.63.615 1.125 1.095 1.485.49.36 1.105.54 1.845.54.69 0 1.27-.16 1.74-.48.47-.32.77-.8.9-1.44h3.57c-.15.94-.505 1.77-1.065 2.49-.55.71-1.265 1.27-2.145 1.68-.88.4-1.88.6-3 .6zm11.318-.42v-16.32c0-1.05.205-1.905.615-2.565.41-.66.95-1.145 1.62-1.455.68-.32 1.415-.48 2.205-.48.49 0 .995.035 1.515.105.52.07 1.025.155 1.515.255l-.69 2.73a4.97 4.97 0 0 0-.78-.21c-.27-.06-.53-.09-.78-.09-.28 0-.545.055-.795.165-.25.1-.455.28-.615.54-.16.26-.24.615-.24 1.065v16.26h-3.57zm-2.16-12.21v-2.34h8.4v2.34h-8.4zm14.415-5.01c-.69 0-1.23-.18-1.62-.54-.38-.37-.57-.88-.57-1.53 0-.63.19-1.13.57-1.5.39-.38.93-.57 1.62-.57.68 0 1.215.19 1.605.57.39.37.585.87.585 1.5 0 .65-.195 1.16-.585 1.53-.39.36-.925.54-1.605.54zm-1.77 17.22v-14.61h3.54v14.61h-3.54zm19.554 0v-8.52c0-1.08-.26-1.895-.78-2.445-.52-.55-1.2-.825-2.04-.825-.71 0-1.34.195-1.89.585-.54.39-.965.98-1.275 1.77-.31.78-.465 1.755-.465 2.925h-1.17c0-1.89.235-3.46.705-4.71.47-1.26 1.135-2.2 1.995-2.82.86-.62 1.87-.93 3.03-.93 1.2 0 2.2.27 3 .81.81.53 1.415 1.28 1.815 2.25.41.97.615 2.1.615 3.39v8.52h-3.54zm-9.99 0v-14.55h3.09l.45 2.88v11.67h-3.54zm24.121.42c-1.24 0-2.375-.32-3.405-.96-1.03-.64-1.855-1.535-2.475-2.685-.62-1.16-.93-2.515-.93-4.065 0-1.6.305-2.975.915-4.125.62-1.15 1.445-2.03 2.475-2.64 1.03-.61 2.17-.915 3.42-.915 1.16 0 2.16.235 3 .705.85.46 1.53 1.09 2.04 1.89.52.79.87 1.685 1.05 2.685.18 1 .19 2.03.03 3.09h-10.11v-1.92h7.605l-.69.45c.03-.47.005-.945-.075-1.425-.07-.48-.21-.92-.42-1.32s-.51-.72-.9-.96c-.38-.25-.87-.375-1.47-.375-.72 0-1.33.18-1.83.54-.5.36-.88.85-1.14 1.47-.26.62-.39 1.32-.39 2.1v1.41c0 .82.12 1.545.36 2.175.25.63.615 1.125 1.095 1.485.49.36 1.105.54 1.845.54.69 0 1.27-.16 1.74-.48.47-.32.77-.8.9-1.44h3.57c-.15.94-.505 1.77-1.065 2.49-.55.71-1.265 1.27-2.145 1.68-.88.4-1.88.6-3 .6zm17.766-19.89h3.54v12.12c0 1.6.405 2.755 1.215 3.465.82.71 1.865 1.065 3.135 1.065 1.28 0 2.325-.355 3.135-1.065.81-.71 1.215-1.865 1.215-3.465v-12.12h3.54v12.12c0 1.64-.315 3.04-.945 4.2a6.326 6.326 0 0 1-2.715 2.655c-1.17.61-2.58.915-4.23.915-1.65 0-3.065-.305-4.245-.915a6.346 6.346 0 0 1-2.7-2.655c-.63-1.16-.945-2.56-.945-4.2v-12.12zm21.013 19.47v-19.47h3.54v19.47h-3.54zm25.999 0l-.45-3.54v-5.85c0-1.02-.21-1.775-.63-2.265-.41-.49-1.11-.735-2.1-.735-.57 0-1.065.085-1.485.255-.42.17-.745.415-.975.735-.22.31-.33.69-.33 1.14h-3.87c0-1.1.265-1.995.795-2.685.53-.7 1.29-1.21 2.28-1.53 1-.33 2.195-.495 3.585-.495 1.26 0 2.36.205 3.3.615.94.4 1.67 1.02 2.19 1.86.52.84.78 1.915.78 3.225v9.27h-3.09zm-4.77.42c-1.25 0-2.295-.215-3.135-.645-.83-.44-1.455-1.015-1.875-1.725-.42-.71-.63-1.48-.63-2.31 0-.92.24-1.69.72-2.31.49-.63 1.18-1.1 2.07-1.41.89-.32 1.94-.48 3.15-.48.79 0 1.535.06 2.235.18.71.12 1.415.28 2.115.48v2.07c-.55-.18-1.15-.32-1.8-.42-.65-.1-1.26-.15-1.83-.15-.84 0-1.53.155-2.07.465-.54.31-.81.835-.81 1.575 0 .54.22 1.005.66 1.395.44.39 1.14.585 2.1.585.73 0 1.35-.16 1.86-.48.51-.32.895-.72 1.155-1.2.27-.48.405-.96.405-1.44h.84c0 1.05-.195 2.02-.585 2.91-.39.88-.97 1.585-1.74 2.115-.76.53-1.705.795-2.835.795zm23.038-.42v-8.52c0-1.08-.26-1.895-.78-2.445-.52-.55-1.2-.825-2.04-.825-.71 0-1.34.195-1.89.585-.54.39-.965.98-1.275 1.77-.31.78-.465 1.755-.465 2.925h-1.17c0-1.89.235-3.46.705-4.71.47-1.26 1.135-2.2 1.995-2.82.86-.62 1.87-.93 3.03-.93 1.2 0 2.2.27 3 .81.81.53 1.415 1.28 1.815 2.25.41.97.615 2.1.615 3.39v8.52h-3.54zm-9.99 0v-14.55h3.09l.45 2.88v11.67h-3.54zm24.062.42c-1.22 0-2.335-.32-3.345-.96-1-.65-1.8-1.555-2.4-2.715-.59-1.17-.885-2.535-.885-4.095 0-1.54.285-2.88.855-4.02.58-1.15 1.35-2.035 2.31-2.655a5.797 5.797 0 0 1 3.225-.945c1.08 0 2.015.26 2.805.78.79.51 1.395 1.27 1.815 2.28.42 1.01.63 2.25.63 3.72h-1.11c0-.76-.155-1.405-.465-1.935a3.16 3.16 0 0 0-1.23-1.23 3.202 3.202 0 0 0-1.635-.435c-.71 0-1.34.185-1.89.555-.54.37-.965.89-1.275 1.56-.31.66-.465 1.435-.465 2.325 0 .92.155 1.72.465 2.4.31.68.735 1.21 1.275 1.59.55.38 1.17.57 1.86.57.56 0 1.095-.15 1.605-.45.52-.31.94-.74 1.26-1.29.33-.55.495-1.19.495-1.92h1.11c0 1.53-.23 2.805-.69 3.825-.45 1.01-1.055 1.77-1.815 2.28-.76.51-1.595.765-2.505.765zm4.56-.42l-.66-3.6v-16.98h3.57v20.58h-2.91zm-171.913 28v-8.52c0-1.08-.26-1.895-.78-2.445-.52-.55-1.2-.825-2.04-.825-.71 0-1.34.195-1.89.585-.54.39-.965.98-1.275 1.77-.31.78-.465 1.755-.465 2.925h-1.17c0-1.89.235-3.46.705-4.71.47-1.26 1.135-2.2 1.995-2.82.86-.62 1.87-.93 3.03-.93 1.2 0 2.2.27 3 .81.81.53 1.415 1.28 1.815 2.25.41.97.615 2.1.615 3.39v8.52h-3.54zm-9.99 0v-20.58h3.54v20.58h-3.54zm27.962 0l-.45-3.54v-5.85c0-1.02-.21-1.775-.63-2.265-.41-.49-1.11-.735-2.1-.735-.57 0-1.065.085-1.485.255-.42.17-.745.415-.975.735-.22.31-.33.69-.33 1.14h-3.87c0-1.1.265-1.995.795-2.685.53-.7 1.29-1.21 2.28-1.53 1-.33 2.195-.495 3.585-.495 1.26 0 2.36.205 3.3.615.94.4 1.67 1.02 2.19 1.86.52.84.78 1.915.78 3.225v9.27h-3.09zm-4.77.42c-1.25 0-2.295-.215-3.135-.645-.83-.44-1.455-1.015-1.875-1.725-.42-.71-.63-1.48-.63-2.31 0-.92.24-1.69.72-2.31.49-.63 1.18-1.1 2.07-1.41.89-.32 1.94-.48 3.15-.48.79 0 1.535.06 2.235.18.71.12 1.415.28 2.115.48v2.07c-.55-.18-1.15-.32-1.8-.42-.65-.1-1.26-.15-1.83-.15-.84 0-1.53.155-2.07.465-.54.31-.81.835-.81 1.575 0 .54.22 1.005.66 1.395.44.39 1.14.585 2.1.585.73 0 1.35-.16 1.86-.48.51-.32.895-.72 1.155-1.2.27-.48.405-.96.405-1.44h.84c0 1.05-.195 2.02-.585 2.91-.39.88-.97 1.585-1.74 2.115-.76.53-1.705.795-2.835.795zm23.038-.42v-8.52c0-1.08-.26-1.895-.78-2.445-.52-.55-1.2-.825-2.04-.825-.71 0-1.34.195-1.89.585-.54.39-.965.98-1.275 1.77-.31.78-.465 1.755-.465 2.925h-1.17c0-1.89.235-3.46.705-4.71.47-1.26 1.135-2.2 1.995-2.82.86-.62 1.87-.93 3.03-.93 1.2 0 2.2.27 3 .81.81.53 1.415 1.28 1.815 2.25.41.97.615 2.1.615 3.39v8.52h-3.54zm-9.99 0v-14.55h3.09l.45 2.88v11.67h-3.54zm24.062.42c-1.22 0-2.335-.32-3.345-.96-1-.65-1.8-1.555-2.4-2.715-.59-1.17-.885-2.535-.885-4.095 0-1.54.285-2.88.855-4.02.58-1.15 1.35-2.035 2.31-2.655a5.797 5.797 0 0 1 3.225-.945c1.08 0 2.015.26 2.805.78.79.51 1.395 1.27 1.815 2.28.42 1.01.63 2.25.63 3.72h-1.11c0-.76-.155-1.405-.465-1.935a3.16 3.16 0 0 0-1.23-1.23 3.202 3.202 0 0 0-1.635-.435c-.71 0-1.34.185-1.89.555-.54.37-.965.89-1.275 1.56-.31.66-.465 1.435-.465 2.325 0 .92.155 1.72.465 2.4.31.68.735 1.21 1.275 1.59.55.38 1.17.57 1.86.57.56 0 1.095-.15 1.605-.45.52-.31.94-.74 1.26-1.29.33-.55.495-1.19.495-1.92h1.11c0 1.53-.23 2.805-.69 3.825-.45 1.01-1.055 1.77-1.815 2.28-.76.51-1.595.765-2.505.765zm4.56-.42l-.66-3.6v-16.98h3.57v20.58h-2.91zm14.227.42c-1.33 0-2.535-.285-3.615-.855-1.07-.57-1.92-1.42-2.55-2.55-.63-1.14-.945-2.565-.945-4.275 0-1.74.315-3.18.945-4.32.63-1.14 1.48-1.99 2.55-2.55 1.08-.56 2.285-.84 3.615-.84 1.31 0 2.495.28 3.555.84 1.07.56 1.92 1.41 2.55 2.55.63 1.14.945 2.58.945 4.32 0 1.71-.315 3.135-.945 4.275-.63 1.13-1.48 1.98-2.55 2.55-1.06.57-2.245.855-3.555.855zm-.12-3.09c.7 0 1.32-.17 1.86-.51.55-.35.98-.865 1.29-1.545.32-.68.48-1.525.48-2.535 0-1.54-.305-2.7-.915-3.48-.6-.78-1.425-1.17-2.475-1.17-.71 0-1.34.175-1.89.525-.55.34-.985.855-1.305 1.545-.31.69-.465 1.55-.465 2.58 0 1.52.305 2.665.915 3.435.62.77 1.455 1.155 2.505 1.155zm12.223 2.67v-16.32c0-1.05.205-1.905.615-2.565.41-.66.95-1.145 1.62-1.455.68-.32 1.415-.48 2.205-.48.49 0 .995.035 1.515.105.52.07 1.025.155 1.515.255l-.69 2.73a4.97 4.97 0 0 0-.78-.21c-.27-.06-.53-.09-.78-.09-.28 0-.545.055-.795.165-.25.1-.455.28-.615.54-.16.26-.24.615-.24 1.065v16.26h-3.57zm-2.16-12.21v-2.34h8.4v2.34h-8.4zm13.175 12.21v-16.32c0-1.05.205-1.905.615-2.565.41-.66.95-1.145 1.62-1.455.68-.32 1.415-.48 2.205-.48.49 0 .995.035 1.515.105.52.07 1.025.155 1.515.255l-.69 2.73a4.97 4.97 0 0 0-.78-.21c-.27-.06-.53-.09-.78-.09-.28 0-.545.055-.795.165-.25.1-.455.28-.615.54-.16.26-.24.615-.24 1.065v16.26h-3.57zm-2.16-12.21v-2.34h8.4v2.34h-8.4zM268.116 626.977v-19.47h3.54v19.47h-3.54zm14.06.42c-.86 0-1.65-.16-2.37-.48-.71-.32-1.28-.81-1.71-1.47-.42-.66-.63-1.5-.63-2.52v-14.37h3.54v14.25c0 1.2.57 1.8 1.71 1.8.35 0 .7-.04 1.05-.12.35-.08.75-.2 1.2-.36l.51 2.49c-.56.22-1.105.405-1.635.555-.53.15-1.085.225-1.665.225zm-6.75-12.63v-2.34h9.54v2.34h-9.54zm19.096 12.63c-1.24 0-2.375-.32-3.405-.96-1.03-.64-1.855-1.535-2.475-2.685-.62-1.16-.93-2.515-.93-4.065 0-1.6.305-2.975.915-4.125.62-1.15 1.445-2.03 2.475-2.64 1.03-.61 2.17-.915 3.42-.915 1.16 0 2.16.235 3 .705.85.46 1.53 1.09 2.04 1.89.52.79.87 1.685 1.05 2.685.18 1 .19 2.03.03 3.09h-10.11v-1.92h7.605l-.69.45c.03-.47.005-.945-.075-1.425-.07-.48-.21-.92-.42-1.32s-.51-.72-.9-.96c-.38-.25-.87-.375-1.47-.375-.72 0-1.33.18-1.83.54-.5.36-.88.85-1.14 1.47-.26.62-.39 1.32-.39 2.1v1.41c0 .82.12 1.545.36 2.175.25.63.615 1.125 1.095 1.485.49.36 1.105.54 1.845.54.69 0 1.27-.16 1.74-.48.47-.32.77-.8.9-1.44h3.57c-.15.94-.505 1.77-1.065 2.49-.55.71-1.265 1.27-2.145 1.68-.88.4-1.88.6-3 .6zm10.478-.42v-14.61h3.54v14.61H305zm2.67-6.39c0-1.91.215-3.49.645-4.74.43-1.25 1.005-2.175 1.725-2.775.73-.61 1.54-.915 2.43-.915a4.78 4.78 0 0 1 1.32.18l-.06 3.54c-.26-.06-.54-.11-.84-.15-.3-.04-.57-.06-.81-.06-.78 0-1.435.19-1.965.57-.52.37-.915.92-1.185 1.65-.26.73-.39 1.63-.39 2.7h-.87zm18.378 6.39l-.45-3.54v-5.85c0-1.02-.21-1.775-.63-2.265-.41-.49-1.11-.735-2.1-.735-.57 0-1.065.085-1.485.255-.42.17-.745.415-.975.735-.22.31-.33.69-.33 1.14h-3.87c0-1.1.265-1.995.795-2.685.53-.7 1.29-1.21 2.28-1.53 1-.33 2.195-.495 3.585-.495 1.26 0 2.36.205 3.3.615.94.4 1.67 1.02 2.19 1.86.52.84.78 1.915.78 3.225v9.27h-3.09zm-4.77.42c-1.25 0-2.295-.215-3.135-.645-.83-.44-1.455-1.015-1.875-1.725-.42-.71-.63-1.48-.63-2.31 0-.92.24-1.69.72-2.31.49-.63 1.18-1.1 2.07-1.41.89-.32 1.94-.48 3.15-.48.79 0 1.535.06 2.235.18.71.12 1.415.28 2.115.48v2.07c-.55-.18-1.15-.32-1.8-.42-.65-.1-1.26-.15-1.83-.15-.84 0-1.53.155-2.07.465-.54.31-.81.835-.81 1.575 0 .54.22 1.005.66 1.395.44.39 1.14.585 2.1.585.73 0 1.35-.16 1.86-.48.51-.32.895-.72 1.155-1.2.27-.48.405-.96.405-1.44h.84c0 1.05-.195 2.02-.585 2.91-.39.88-.97 1.585-1.74 2.115-.76.53-1.705.795-2.835.795zm17.969 0c-.86 0-1.65-.16-2.37-.48-.71-.32-1.28-.81-1.71-1.47-.42-.66-.63-1.5-.63-2.52v-14.37h3.54v14.25c0 1.2.57 1.8 1.71 1.8.35 0 .7-.04 1.05-.12.35-.08.75-.2 1.2-.36l.51 2.49c-.56.22-1.105.405-1.635.555-.53.15-1.085.225-1.665.225zm-6.75-12.63v-2.34h9.54v2.34h-9.54zm19.096 12.63c-1.24 0-2.375-.32-3.405-.96-1.03-.64-1.855-1.535-2.475-2.685-.62-1.16-.93-2.515-.93-4.065 0-1.6.305-2.975.915-4.125.62-1.15 1.445-2.03 2.475-2.64 1.03-.61 2.17-.915 3.42-.915 1.16 0 2.16.235 3 .705.85.46 1.53 1.09 2.04 1.89.52.79.87 1.685 1.05 2.685.18 1 .19 2.03.03 3.09h-10.11v-1.92h7.605l-.69.45c.03-.47.005-.945-.075-1.425-.07-.48-.21-.92-.42-1.32s-.51-.72-.9-.96c-.38-.25-.87-.375-1.47-.375-.72 0-1.33.18-1.83.54-.5.36-.88.85-1.14 1.47-.26.62-.39 1.32-.39 2.1v1.41c0 .82.12 1.545.36 2.175.25.63.615 1.125 1.095 1.485.49.36 1.105.54 1.845.54.69 0 1.27-.16 1.74-.48.47-.32.77-.8.9-1.44h3.57c-.15.94-.505 1.77-1.065 2.49-.55.71-1.265 1.27-2.145 1.68-.88.4-1.88.6-3 .6z" fill="#002139"/><path d="M139.375 349.877l.644-6.026h-4.232l.322-3.542h4.278l.782-7.268h-4.278l.368-3.542h4.278l.644-5.98h5.106l-.644 5.98h6.256l.644-5.98h5.06l-.598 5.98h4.278l-.368 3.542h-4.324l-.736 7.268h4.324l-.368 3.542h-4.324l-.644 6.026h-5.106l.644-6.026h-6.256l-.644 6.026h-5.106zm6.118-9.568h6.256l.782-7.268h-6.256l-.782 7.268zm26.852-18.952h4.094v30.038h-5.428v-23.552c-.813.368-1.61.652-2.392.851-.782.2-1.564.299-2.346.299v-5.198a12.135 12.135 0 0 0 3.036-.713c.981-.383 1.993-.958 3.036-1.725zM432.964 186.218l.644-6.026h-4.232l.322-3.542h4.278l.782-7.268h-4.278l.368-3.542h4.278l.644-5.98h5.106l-.644 5.98h6.256l.644-5.98h5.06l-.598 5.98h4.278l-.368 3.542h-4.324l-.736 7.268h4.324l-.368 3.542h-4.324l-.644 6.026h-5.106l.644-6.026h-6.256l-.644 6.026h-5.106zm6.118-9.568h6.256l.782-7.268h-6.256l-.782 7.268zm21.608 11.086v-5.106c0-1.671.253-3.09.759-4.255a7.593 7.593 0 0 1 2.254-2.944c1.012-.813 2.277-1.51 3.795-2.093l6.118-2.346c1.334-.537 2.316-1.196 2.944-1.978.644-.782.966-1.748.966-2.898 0-1.15-.421-2.116-1.265-2.898-.828-.797-2.016-1.196-3.565-1.196-1.487 0-2.737.376-3.749 1.127-.996.736-1.571 1.817-1.725 3.243h-6.026c.046-2.039.575-3.734 1.587-5.083 1.012-1.349 2.369-2.354 4.071-3.013 1.702-.675 3.619-1.012 5.75-1.012 2.009 0 3.826.383 5.451 1.15 1.626.751 2.914 1.809 3.864 3.174.966 1.349 1.449 2.929 1.449 4.738 0 1.533-.283 2.883-.851 4.048-.552 1.165-1.395 2.185-2.53 3.059-1.134.874-2.568 1.648-4.301 2.323l-6.164 2.392c-1.196.46-2.062.974-2.599 1.541-.536.552-.805 1.28-.805 2.185v.874h17.066v4.968H460.69zM889.004 230.654l.644-6.026h-4.232l.322-3.542h4.278l.782-7.268h-4.278l.368-3.542h4.278l.644-5.98h5.106l-.644 5.98h6.256l.644-5.98h5.06l-.598 5.98h4.278l-.368 3.542h-4.324l-.736 7.268h4.324l-.368 3.542h-4.324l-.644 6.026h-5.106l.644-6.026h-6.256l-.644 6.026h-5.106zm6.118-9.568h6.256l.782-7.268h-6.256l-.782 7.268zm33.246 11.73c-1.58 0-3.105-.214-4.577-.644-1.472-.429-2.791-1.065-3.956-1.909a9.528 9.528 0 0 1-2.783-3.128c-.675-1.257-1.012-2.706-1.012-4.347h5.704c.061 1.043.375 1.948.943 2.714.567.752 1.334 1.334 2.3 1.748.981.399 2.108.598 3.381.598 1.87 0 3.335-.429 4.393-1.288 1.058-.858 1.587-1.947 1.587-3.266 0-.858-.215-1.594-.644-2.208-.43-.628-1.089-1.104-1.978-1.426-.89-.337-2.024-.506-3.404-.506h-3.956v-4.278h3.358c1.748 0 3.12-.375 4.117-1.127.996-.751 1.495-1.771 1.495-3.059 0-1.15-.43-2.108-1.288-2.875-.859-.782-2.147-1.173-3.864-1.173-1.396 0-2.645.284-3.749.851-1.089.568-1.787 1.557-2.093 2.967h-5.704c.214-2.039.828-3.703 1.84-4.991 1.027-1.288 2.353-2.231 3.979-2.829 1.625-.613 3.457-.92 5.497-.92 2.162 0 4.086.353 5.773 1.058 1.686.706 3.013 1.687 3.979 2.944.981 1.242 1.472 2.684 1.472 4.324 0 1.518-.414 2.845-1.242 3.979-.828 1.12-2.055 1.955-3.68 2.507 1.809.614 3.258 1.526 4.347 2.737 1.088 1.212 1.633 2.722 1.633 4.531 0 1.764-.499 3.328-1.495 4.692-.982 1.35-2.362 2.408-4.14 3.174-1.779.767-3.857 1.15-6.233 1.15zM597.268 586.878l.644-6.026h-4.232l.322-3.542h4.278l.782-7.268h-4.278l.368-3.542h4.278l.644-5.98h5.106l-.644 5.98h6.256l.644-5.98h5.06l-.598 5.98h4.278l-.368 3.542h-4.324l-.736 7.268h4.324l-.368 3.542h-4.324l-.644 6.026h-5.106l.644-6.026h-6.256l-.644 6.026h-5.106zm6.118-9.568h6.256l.782-7.268h-6.256l-.782 7.268zm35.132-19.09h5.244v18.906h5.198v4.646h-5.198v6.624h-5.382v-6.624h-15.134v-4.094l15.272-19.458zm.138 8.05l-8.97 11.408h8.97V566.27zM271.536 593.972l.644-6.026h-4.232l.322-3.542h4.278l.782-7.268h-4.278l.368-3.542h4.278l.644-5.98h5.106l-.644 5.98h6.256l.644-5.98h5.06l-.598 5.98h4.278l-.368 3.542h-4.324l-.736 7.268h4.324l-.368 3.542h-4.324l-.644 6.026h-5.106l.644-6.026h-6.256l-.644 6.026h-5.106zm6.118-9.568h6.256l.782-7.268h-6.256l-.782 7.268zm32.509 11.73c-2.146 0-4.04-.368-5.681-1.104-1.64-.751-2.936-1.84-3.887-3.266-.935-1.426-1.426-3.158-1.472-5.198h5.52c0 1.534.529 2.684 1.587 3.45 1.058.767 2.369 1.15 3.933 1.15 1.672 0 3.036-.536 4.094-1.61 1.074-1.088 1.61-2.422 1.61-4.002 0-3.066-2.054-4.6-6.164-4.6h-9.108l1.38-15.318h17.894v4.968h-13.524l1.058-1.564-.874 8.878-.46-.506c.736-.168 1.61-.291 2.622-.368a29.527 29.527 0 0 1 2.622-.138c3.082 0 5.536.752 7.36 2.254 1.84 1.488 2.76 3.619 2.76 6.394 0 1.978-.467 3.772-1.403 5.382-.935 1.595-2.246 2.86-3.933 3.795-1.686.936-3.664 1.403-5.934 1.403z" fill="#01BEF4"/></svg>